<svg xmlns="http://www.w3.org/2000/svg" viewBox="0 0 960 730" preserveAspectRatio="none">
<defs>
<linearGradient id="surface" x2=".1" y2="1"><stop stop-color="#29271F"/><stop offset=".18" stop-color="#0B0B0B"/><stop offset=".8" stop-color="#0B0B0B"/><stop offset="1" stop-color="#26231B"/></linearGradient>
<mask id="holes"><rect width="960" height="730" fill="white"/><rect x="12" y="85.94" width="15" height="10" rx="1.8" fill="black"/><rect x="12" y="641.06" width="15" height="10" rx="1.8" fill="black"/><rect x="42" y="78.62" width="15" height="10" rx="1.8" fill="black"/><rect x="42" y="648.38" width="15" height="10" rx="1.8" fill="black"/><rect x="72" y="71.79" width="15" height="10" rx="1.8" fill="black"/><rect x="72" y="655.21" width="15" height="10" rx="1.8" fill="black"/><rect x="102" y="65.45" width="15" height="10" rx="1.8" fill="black"/><rect x="102" y="661.55" width="15" height="10" rx="1.8" fill="black"/><rect x="132" y="59.59" width="15" height="10" rx="1.8" fill="black"/><rect x="132" y="667.41" width="15" height="10" rx="1.8" fill="black"/><rect x="162" y="54.21" width="15" height="10" rx="1.8" fill="black"/><rect x="162" y="672.79" width="15" height="10" rx="1.8" fill="black"/><rect x="192" y="49.32" width="15" height="10" rx="1.8" fill="black"/><rect x="192" y="677.68" width="15" height="10" rx="1.8" fill="black"/><rect x="222" y="44.91" width="15" height="10" rx="1.8" fill="black"/><rect x="222" y="682.09" width="15" height="10" rx="1.8" fill="black"/><rect x="252" y="40.99" width="15" height="10" rx="1.8" fill="black"/><rect x="252" y="686.01" width="15" height="10" rx="1.8" fill="black"/><rect x="282" y="37.55" width="15" height="10" rx="1.8" fill="black"/><rect x="282" y="689.45" width="15" height="10" rx="1.8" fill="black"/><rect x="312" y="34.59" width="15" height="10" rx="1.8" fill="black"/><rect x="312" y="692.40" width="15" height="10" rx="1.8" fill="black"/><rect x="342" y="32.12" width="15" height="10" rx="1.8" fill="black"/><rect x="342" y="694.88" width="15" height="10" rx="1.8" fill="black"/><rect x="372" y="30.14" width="15" height="10" rx="1.8" fill="black"/><rect x="372" y="696.86" width="15" height="10" rx="1.8" fill="black"/><rect x="402" y="28.64" width="15" height="10" rx="1.8" fill="black"/><rect x="402" y="698.36" width="15" height="10" rx="1.8" fill="black"/><rect x="432" y="27.62" width="15" height="10" rx="1.8" fill="black"/><rect x="432" y="699.38" width="15" height="10" rx="1.8" fill="black"/><rect x="462" y="27.09" width="15" height="10" rx="1.8" fill="black"/><rect x="462" y="699.91" width="15" height="10" rx="1.8" fill="black"/><rect x="492" y="27.04" width="15" height="10" rx="1.8" fill="black"/><rect x="492" y="699.96" width="15" height="10" rx="1.8" fill="black"/><rect x="522" y="27.47" width="15" height="10" rx="1.8" fill="black"/><rect x="522" y="699.53" width="15" height="10" rx="1.8" fill="black"/><rect x="552" y="28.39" width="15" height="10" rx="1.8" fill="black"/><rect x="552" y="698.61" width="15" height="10" rx="1.8" fill="black"/><rect x="582" y="29.80" width="15" height="10" rx="1.8" fill="black"/><rect x="582" y="697.20" width="15" height="10" rx="1.8" fill="black"/><rect x="612" y="31.69" width="15" height="10" rx="1.8" fill="black"/><rect x="612" y="695.31" width="15" height="10" rx="1.8" fill="black"/><rect x="642" y="34.06" width="15" height="10" rx="1.8" fill="black"/><rect x="642" y="692.94" width="15" height="10" rx="1.8" fill="black"/><rect x="672" y="36.92" width="15" height="10" rx="1.8" fill="black"/><rect x="672" y="690.08" width="15" height="10" rx="1.8" fill="black"/><rect x="702" y="40.26" width="15" height="10" rx="1.8" fill="black"/><rect x="702" y="686.74" width="15" height="10" rx="1.8" fill="black"/><rect x="732" y="44.09" width="15" height="10" rx="1.8" fill="black"/><rect x="732" y="682.91" width="15" height="10" rx="1.8" fill="black"/><rect x="762" y="48.40" width="15" height="10" rx="1.8" fill="black"/><rect x="762" y="678.60" width="15" height="10" rx="1.8" fill="black"/><rect x="792" y="53.20" width="15" height="10" rx="1.8" fill="black"/><rect x="792" y="673.80" width="15" height="10" rx="1.8" fill="black"/><rect x="822" y="58.47" width="15" height="10" rx="1.8" fill="black"/><rect x="822" y="668.53" width="15" height="10" rx="1.8" fill="black"/><rect x="852" y="64.24" width="15" height="10" rx="1.8" fill="black"/><rect x="852" y="662.76" width="15" height="10" rx="1.8" fill="black"/><rect x="882" y="70.49" width="15" height="10" rx="1.8" fill="black"/><rect x="882" y="656.51" width="15" height="10" rx="1.8" fill="black"/><rect x="912" y="77.22" width="15" height="10" rx="1.8" fill="black"/><rect x="912" y="649.78" width="15" height="10" rx="1.8" fill="black"/><rect x="942" y="84.44" width="15" height="10" rx="1.8" fill="black"/><rect x="942" y="642.56" width="15" height="10" rx="1.8" fill="black"/></mask>
</defs>
<path d="M0 70Q480 -54 960 70V660Q480 784 0 660Z" fill="url(#surface)" mask="url(#holes)"/>
<path d="M0 71Q480 -53 960 71M0 659Q480 783 960 659" fill="none" stroke="#F4E7C3" stroke-opacity=".2" stroke-width="1.5"/>
</svg>