<svg xmlns="http://www.w3.org/2000/svg" viewBox="0 115 1774 690" role="img" aria-labelledby="sk-title sk-desc">
<title id="sk-title">Sankhya</title>
<desc id="sk-desc">Ornate Sankhya lettering with a simplified S and independently rotating stars.</desc>
<defs>
  <clipPath id="sk-patches"><path d="M261 256L262 256L262 250L263 250L263 246L264 246L264 244L265 244L266 240L267 240L267 239L268 239L269 237L271 237L272 235L274 235L274 234L277 234L277 233L283 233L284 235L283 235L283 236L282 236L282 237L281 237L281 238L280 238L279 240L277 240L277 242L276 242L276 243L274 244L274 246L272 247L272 249L271 249L271 251L270 251L270 253L269 253L269 255L268 255L268 258L267 258L267 261L266 261L266 264L265 264L265 271L264 271L264 273L263 273L263 274L261 273ZM265 275L266 275L266 272L267 272L268 266L269 266L270 262L272 261L272 259L273 259L273 258L274 258L274 257L275 257L275 256L276 256L276 255L277 255L277 254L278 254L278 253L279 253L279 252L280 252L280 251L281 251L282 249L284 249L285 247L287 247L287 246L289 246L289 245L291 245L291 244L293 244L293 243L296 243L296 242L299 242L299 241L303 241L303 240L309 240L309 239L322 239L322 240L323 240L322 242L318 242L318 243L310 244L310 245L307 245L307 246L305 246L305 247L302 247L302 248L300 248L300 249L298 249L298 250L294 251L293 253L291 253L291 254L290 254L290 255L289 255L289 256L288 256L288 257L287 257L287 258L286 258L286 259L285 259L285 260L284 260L284 261L283 261L283 262L282 262L282 263L280 264L280 266L278 267L278 269L277 269L277 271L276 271L276 274L275 274L275 277L274 277L274 281L273 281L273 287L272 287L272 298L273 298L273 301L272 301L272 302L271 302L271 301L269 300L269 297L268 297L268 295L267 295L267 293L266 293L266 290L265 290ZM288 231L289 231L290 229L292 229L293 227L295 227L295 226L297 226L297 225L299 225L299 224L302 224L302 223L306 223L306 222L316 222L316 223L320 223L320 224L323 224L323 225L325 225L325 226L327 226L327 227L331 228L331 229L332 229L332 230L333 230L333 231L334 231L334 232L335 232L335 233L336 233L336 234L337 234L337 235L338 235L338 236L339 236L339 237L340 237L340 238L341 238L342 240L341 240L341 241L339 241L339 240L336 240L336 239L333 239L333 238L329 238L329 237L323 237L323 236L305 236L305 237L300 237L300 238L297 238L296 236L294 236L294 235L292 235L292 234L289 234L289 233L288 233ZM300 193L301 193L301 192L316 192L316 193L318 193L318 194L321 194L321 195L323 195L323 196L324 196L324 197L325 197L325 198L326 198L326 199L327 199L327 200L328 200L328 201L329 201L329 202L330 202L330 203L332 204L332 206L334 207L334 209L335 209L335 212L336 212L336 214L337 214L337 217L338 217L338 220L339 220L339 223L340 223L340 226L341 226L341 228L339 229L339 228L338 228L338 227L337 227L337 226L336 226L336 225L335 225L335 224L334 224L334 223L333 223L332 221L330 221L330 220L329 220L328 218L326 218L325 216L321 215L320 213L318 213L318 212L315 212L315 211L313 211L313 210L311 210L311 209L309 209L309 208L305 207L305 206L304 206L304 205L302 204L302 203L303 203L303 202L305 202L305 201L304 201L304 199L302 198L302 196L301 196L301 194L300 194ZM332 183L333 183L333 179L334 179L334 176L335 176L335 174L336 174L336 172L337 172L338 168L340 167L341 163L342 163L342 162L343 162L344 160L345 160L345 161L346 161L346 162L348 163L348 165L350 166L350 168L351 168L352 172L354 173L354 175L355 175L355 177L356 177L356 180L358 181L358 184L359 184L359 194L358 194L358 198L357 198L356 204L355 204L355 206L354 206L354 208L353 208L353 210L352 210L352 212L351 212L351 214L350 214L350 216L349 216L349 219L348 219L348 221L347 221L347 223L346 223L346 224L344 223L344 221L343 221L343 219L342 219L342 216L341 216L341 214L340 214L340 212L339 212L339 210L338 210L338 208L337 208L337 206L336 206L336 204L335 204L335 201L334 201L334 198L333 198L333 195L332 195ZM350 228L351 228L351 225L352 225L352 222L353 222L353 218L354 218L354 216L355 216L355 213L356 213L356 211L357 211L357 209L358 209L358 207L359 207L360 203L361 203L361 202L362 202L362 200L363 200L363 199L364 199L364 198L365 198L365 197L366 197L366 196L367 196L368 194L370 194L371 192L373 192L373 191L375 191L375 190L379 190L379 189L393 189L393 190L397 190L398 192L400 192L400 193L402 194L402 195L401 195L401 196L400 196L400 197L399 197L399 198L398 198L398 199L397 199L397 200L396 200L396 201L395 201L394 203L392 203L391 205L389 205L389 206L387 206L386 208L384 208L384 209L382 209L382 210L379 210L379 211L377 211L377 212L375 212L375 213L371 214L370 216L366 217L365 219L363 219L363 220L362 220L362 221L361 221L361 222L360 222L360 223L359 223L358 225L356 225L356 226L354 227L354 229L353 229L353 230L351 230ZM352 239L353 239L353 238L354 238L354 237L356 236L356 234L357 234L357 233L358 233L358 232L359 232L360 230L362 230L362 229L363 229L363 228L365 228L366 226L368 226L368 225L370 225L370 224L372 224L372 223L375 223L375 222L380 222L380 221L392 221L392 222L397 222L397 223L400 223L400 224L406 225L406 226L408 226L408 227L410 227L410 228L412 228L413 230L415 230L415 231L416 231L416 233L415 233L415 234L414 234L414 233L410 233L410 234L408 234L408 233L399 233L399 232L397 232L397 233L377 233L377 234L372 234L372 235L369 235L369 236L366 236L366 237L360 238L360 239L358 239L358 240L355 240L354 242L352 241ZM370 238L371 238L371 237L375 237L375 236L380 236L380 235L397 235L397 236L403 236L403 237L407 237L407 238L410 238L410 239L416 240L416 241L418 241L418 242L422 243L423 245L425 245L425 246L426 246L426 247L427 247L428 249L430 249L430 250L432 251L432 253L433 253L433 254L434 254L434 255L435 255L435 256L436 256L436 257L437 257L437 258L438 258L438 259L439 259L439 260L440 260L441 262L440 262L440 263L438 263L438 262L437 262L437 261L436 261L436 260L435 260L434 258L432 258L432 257L430 257L429 255L427 255L427 254L425 254L425 253L423 253L423 252L420 252L420 251L418 251L418 250L416 250L416 249L413 249L413 248L410 248L410 247L407 247L407 246L404 246L404 245L401 245L401 244L396 244L396 243L391 243L391 242L385 242L385 241L377 241L377 240L371 240Z" clip-rule="evenodd"/><path d="M231 364L232 364L232 363L237 363L237 364L238 364L238 366L239 366L239 370L240 370L239 380L238 380L238 383L237 383L237 386L236 386L236 390L235 390L235 393L234 393L234 396L233 396L233 397L231 396ZM241 423L243 422L243 423L248 423L248 424L256 425L256 426L258 426L258 427L261 427L261 428L263 428L263 429L264 429L264 430L266 430L267 432L269 432L269 433L270 433L270 434L271 434L271 435L272 435L272 436L273 436L273 437L274 437L274 438L275 438L275 439L276 439L276 440L278 441L278 443L279 443L279 444L280 444L280 446L281 446L281 447L283 448L283 450L284 450L284 451L285 451L285 452L286 452L286 453L287 453L287 454L288 454L288 455L289 455L289 456L290 456L290 457L291 457L291 458L292 458L293 460L295 460L295 461L296 461L296 462L298 462L299 464L301 464L301 465L305 466L306 468L305 468L305 469L303 469L303 470L283 470L283 469L275 468L275 467L273 467L273 466L271 466L271 465L269 465L269 464L265 463L264 461L262 461L262 460L261 460L261 459L260 459L259 457L257 457L257 456L256 456L256 455L254 454L254 452L253 452L253 451L251 450L251 448L250 448L250 447L249 447L249 445L247 444L247 442L246 442L246 439L245 439L245 437L244 437L244 434L243 434L243 432L242 432L242 428L241 428ZM275 411L276 411L276 405L277 405L278 397L279 397L279 395L280 395L280 394L281 394L282 396L284 396L284 397L285 397L285 398L286 398L286 399L287 399L287 400L288 400L288 401L289 401L289 402L290 402L290 403L291 403L291 404L293 405L293 407L294 407L294 409L295 409L295 412L296 412L296 427L295 427L295 432L296 432L296 441L297 441L297 446L298 446L299 452L300 452L301 456L303 457L303 459L305 460L304 462L302 462L302 461L301 461L301 460L299 460L299 459L298 459L297 457L295 457L295 456L294 456L294 455L293 455L293 454L292 454L292 453L291 453L291 452L290 452L290 451L289 451L289 450L288 450L288 449L287 449L287 448L286 448L286 447L284 446L284 444L282 443L282 441L281 441L281 439L280 439L280 437L279 437L279 435L278 435L277 429L276 429L276 424L275 424ZM298 418L299 418L299 412L300 412L300 408L301 408L302 402L303 402L303 400L304 400L304 397L305 397L305 395L306 395L306 393L307 393L307 391L308 391L309 387L310 387L310 386L311 386L311 384L313 383L314 379L315 379L315 378L316 378L316 376L318 375L318 373L319 373L320 369L321 369L321 368L323 367L323 368L325 369L325 371L327 372L327 374L329 375L329 377L331 378L332 382L334 383L334 385L335 385L335 387L336 387L336 389L337 389L337 391L338 391L338 393L339 393L339 395L340 395L340 398L341 398L341 400L342 400L342 403L343 403L343 407L344 407L344 411L345 411L345 418L346 418L346 427L345 427L345 434L344 434L343 442L342 442L342 443L340 443L340 442L339 442L339 438L340 438L340 436L339 436L339 429L338 429L338 426L337 426L336 420L335 420L335 418L334 418L334 416L333 416L333 414L332 414L331 410L329 409L329 407L328 407L328 406L326 405L326 403L325 403L325 402L324 402L324 401L323 401L322 399L321 399L321 400L320 400L320 402L319 402L319 403L318 403L318 404L317 404L317 405L316 405L316 406L314 407L314 409L313 409L313 410L311 411L311 413L309 414L308 418L306 419L306 421L305 421L305 424L304 424L304 426L303 426L302 437L301 437L300 439L298 438ZM305 440L306 440L306 434L307 434L307 432L308 432L308 430L309 430L309 428L310 428L311 424L312 424L312 423L314 422L314 420L315 420L315 419L316 419L316 418L317 418L317 417L318 417L319 415L323 414L323 415L324 415L324 417L325 417L325 418L327 419L327 421L329 422L329 424L330 424L330 426L331 426L331 428L332 428L332 432L333 432L333 435L334 435L334 446L333 446L333 450L332 450L332 452L330 453L330 455L329 455L329 456L328 456L328 457L327 457L327 458L326 458L326 459L325 459L325 460L324 460L323 462L321 462L320 464L317 464L317 463L316 463L316 462L314 462L314 461L313 461L313 460L312 460L312 459L310 458L310 456L308 455L308 453L307 453L307 450L306 450ZM308 476L309 476L309 475L310 475L310 474L311 474L311 473L312 473L312 472L313 472L313 471L315 470L315 468L316 468L317 466L319 466L319 467L320 467L320 469L321 469L321 470L323 471L323 473L324 473L324 474L325 474L325 475L326 475L327 477L326 477L326 478L309 478ZM329 469L330 469L330 468L333 468L333 467L336 467L336 466L339 466L339 465L341 465L341 464L343 464L343 463L345 463L345 462L349 461L349 460L350 460L350 459L352 459L352 458L353 458L354 456L356 456L356 455L357 455L357 454L358 454L358 453L359 453L360 451L362 451L362 450L363 450L363 449L364 449L364 448L365 448L366 446L368 446L369 444L371 444L371 443L373 443L373 442L375 442L375 441L378 441L378 440L381 440L381 439L384 439L384 438L392 438L392 437L403 437L403 438L405 437L405 438L406 438L406 440L405 440L405 442L404 442L403 446L401 447L401 449L399 450L399 452L398 452L398 453L396 454L396 456L395 456L395 457L394 457L394 458L393 458L393 459L392 459L392 460L391 460L391 461L390 461L389 463L387 463L387 464L386 464L385 466L383 466L382 468L380 468L380 469L378 469L378 470L376 470L376 471L374 471L374 472L371 472L371 473L368 473L368 474L364 474L364 475L344 475L344 474L339 474L339 473L336 473L336 472L330 471ZM334 461L335 461L335 460L336 460L336 458L337 458L337 457L339 456L339 454L341 453L341 451L342 451L342 448L343 448L343 446L344 446L344 443L345 443L345 440L346 440L346 437L347 437L347 428L348 428L348 423L349 423L349 420L350 420L350 418L351 418L352 414L353 414L353 413L354 413L354 412L355 412L355 411L356 411L356 410L357 410L357 409L358 409L359 407L361 407L361 406L363 406L363 405L365 405L365 404L367 404L367 403L369 403L369 402L372 402L372 403L373 403L372 423L371 423L371 427L370 427L370 430L369 430L369 432L368 432L368 434L367 434L367 436L366 436L365 440L364 440L364 441L363 441L363 443L362 443L362 444L360 445L360 447L359 447L359 448L358 448L358 449L357 449L357 450L356 450L355 452L353 452L353 453L352 453L352 454L351 454L350 456L348 456L347 458L345 458L345 459L343 459L343 460L341 460L341 461L339 461L339 462L337 462L337 463L335 463Z" clip-rule="evenodd"/><path d="M255 712L257 711L257 712L259 712L259 713L261 713L261 714L264 714L264 715L266 715L266 716L269 716L269 717L272 717L272 718L276 718L276 719L280 719L280 720L286 720L286 721L291 721L292 723L291 723L291 724L272 724L272 723L264 723L264 722L259 722L259 721L256 721L256 720L255 720ZM266 668L267 668L267 667L275 667L275 668L281 668L281 669L285 669L285 670L289 671L289 672L290 672L291 674L293 674L293 675L295 676L295 678L296 678L296 679L297 679L297 680L299 681L299 683L301 684L301 686L303 687L303 689L304 689L304 690L306 691L306 693L307 693L307 694L308 694L308 695L309 695L309 696L310 696L311 698L313 698L313 699L314 699L315 701L317 701L318 703L322 704L323 706L322 706L322 707L307 707L307 706L303 706L303 705L300 705L300 704L298 704L298 703L296 703L296 702L294 702L294 701L290 700L289 698L287 698L287 697L286 697L286 696L285 696L285 695L284 695L284 694L283 694L283 693L282 693L282 692L281 692L281 691L280 691L280 690L279 690L279 689L278 689L278 688L276 687L276 685L275 685L275 684L274 684L274 682L272 681L272 679L271 679L271 677L270 677L270 675L269 675L269 673L268 673L268 671L267 671L267 669L266 669ZM295 652L296 652L296 651L298 651L299 653L301 653L301 654L302 654L303 656L305 656L305 657L306 657L306 658L307 658L307 659L308 659L308 660L309 660L309 661L310 661L310 662L311 662L311 663L313 664L313 666L315 667L315 669L316 669L316 671L317 671L317 673L318 673L318 680L319 680L319 683L320 683L320 687L321 687L321 690L322 690L322 692L323 692L323 694L324 694L324 696L325 696L325 698L326 698L326 700L327 700L326 702L322 701L321 699L319 699L318 697L316 697L316 696L315 696L315 695L314 695L313 693L311 693L311 692L310 692L310 691L309 691L309 690L308 690L308 689L307 689L307 688L306 688L306 687L305 687L305 686L303 685L303 683L302 683L302 682L300 681L300 679L299 679L299 677L298 677L298 675L297 675L296 667L295 667ZM319 659L320 659L320 653L321 653L321 651L322 651L322 648L323 648L323 646L324 646L324 643L325 643L325 641L326 641L326 639L327 639L328 635L330 634L330 632L331 632L331 631L333 630L333 628L334 628L334 626L335 626L335 625L337 625L337 626L338 626L338 628L339 628L340 632L342 633L342 635L343 635L343 637L344 637L344 640L345 640L345 642L346 642L346 645L347 645L347 648L348 648L348 653L347 653L347 654L349 655L349 666L348 666L348 672L347 672L347 676L346 676L345 682L344 682L344 684L343 684L343 686L342 686L342 688L341 688L340 692L338 693L338 695L336 696L336 698L335 698L335 700L334 700L334 701L332 701L332 700L330 699L330 697L328 696L328 694L327 694L327 692L326 692L326 690L325 690L325 688L324 688L323 682L322 682L322 680L321 680L321 677L320 677L320 674L319 674ZM322 714L323 714L323 713L325 713L325 712L326 712L326 711L327 711L327 710L329 709L329 707L331 706L331 704L333 703L333 704L334 704L334 705L335 705L335 706L337 707L337 709L338 709L338 710L339 710L339 711L340 711L340 712L341 712L341 713L343 714L343 716L342 716L342 717L341 717L341 718L340 718L340 719L338 720L338 722L337 722L337 723L335 724L335 726L334 726L334 727L332 727L332 726L331 726L331 724L330 724L330 723L329 723L329 722L327 721L327 719L326 719L326 718L325 718L325 717L324 717L324 716L323 716ZM340 699L341 699L341 697L342 697L342 695L343 695L343 692L344 692L344 690L345 690L345 686L346 686L346 683L347 683L347 679L348 679L348 675L349 675L349 672L350 672L351 668L353 667L353 665L354 665L354 664L355 664L355 663L356 663L357 661L359 661L359 660L360 660L360 659L362 659L363 657L365 657L365 656L367 656L367 655L369 655L369 654L370 654L370 655L371 655L371 663L370 663L369 673L368 673L368 676L367 676L367 678L366 678L365 682L364 682L364 683L362 684L362 686L361 686L361 687L360 687L360 688L359 688L359 689L358 689L358 690L357 690L357 691L356 691L355 693L353 693L353 694L352 694L352 695L351 695L350 697L348 697L347 699L343 700L342 702L340 701ZM344 705L345 705L345 704L347 704L348 702L350 702L350 701L351 701L351 700L352 700L353 698L355 698L355 697L356 697L356 696L357 696L357 695L358 695L358 694L359 694L359 693L361 692L361 690L362 690L362 689L363 689L363 687L365 686L365 684L366 684L366 682L368 681L368 679L369 679L369 678L370 678L370 677L371 677L371 676L372 676L372 675L373 675L373 674L374 674L374 673L375 673L376 671L378 671L378 670L380 670L380 669L382 669L382 668L385 668L385 667L390 667L390 666L395 666L395 667L396 667L396 672L395 672L395 675L394 675L394 677L393 677L393 679L392 679L392 681L391 681L390 685L389 685L389 686L388 686L388 688L387 688L387 689L385 690L385 692L384 692L384 693L383 693L383 694L382 694L381 696L379 696L379 697L378 697L378 698L377 698L376 700L374 700L374 701L372 701L372 702L370 702L370 703L368 703L368 704L365 704L365 705L362 705L362 706L358 706L358 707L345 707Z" clip-rule="evenodd"/><path d="M438 212L439 212L439 211L447 211L447 212L457 212L457 213L460 213L460 214L462 214L462 215L464 215L464 216L468 217L469 219L471 219L471 220L472 220L472 221L473 221L473 222L474 222L474 223L475 223L475 224L476 224L476 225L477 225L477 226L478 226L478 227L479 227L479 228L480 228L480 229L482 230L482 232L484 233L484 235L485 235L485 237L486 237L486 239L487 239L487 242L486 242L486 243L484 243L484 242L480 243L480 242L478 242L477 240L475 240L474 238L472 238L472 237L471 237L471 236L470 236L470 235L468 234L468 235L469 235L469 237L471 238L471 245L472 245L472 244L474 243L474 244L476 244L476 245L479 245L479 246L482 246L482 247L488 247L488 245L490 244L490 245L491 245L491 246L492 246L492 247L494 248L494 250L495 250L495 252L496 252L496 254L497 254L497 256L498 256L498 260L499 260L499 268L498 268L497 272L496 272L495 274L491 275L491 276L488 276L488 275L484 274L484 276L485 276L485 277L486 277L486 279L488 280L488 283L487 283L487 286L486 286L486 289L485 289L485 291L484 291L483 295L481 296L481 298L480 298L480 299L478 300L478 302L477 302L476 304L474 303L474 295L475 295L475 293L474 293L474 281L473 281L473 275L472 275L472 271L471 271L471 267L470 267L469 261L468 261L467 263L465 263L465 264L463 264L463 263L462 263L461 259L460 259L460 258L459 258L459 256L458 256L458 253L457 253L457 250L456 250L456 244L455 244L455 241L454 241L453 235L452 235L452 233L451 233L451 231L450 231L450 228L448 227L447 223L445 222L445 220L444 220L444 219L442 218L442 216L441 216L441 215L440 215L440 214L439 214ZM471 214L472 214L472 213L477 213L477 212L483 212L483 211L486 211L486 210L492 209L492 208L494 208L494 207L499 207L499 205L500 205L500 204L501 204L501 203L502 203L502 202L503 202L504 200L506 200L506 199L508 199L508 198L510 198L510 197L514 197L514 196L522 195L522 194L524 194L524 193L526 193L526 194L527 194L527 196L526 196L526 199L525 199L525 204L524 204L524 206L523 206L522 210L521 210L521 211L520 211L520 212L519 212L519 213L518 213L518 214L517 214L516 216L514 216L513 218L510 218L510 219L507 219L507 220L502 220L502 221L493 221L493 220L488 220L488 219L483 219L483 218L475 217L475 216L472 216ZM477 221L478 221L478 220L481 220L481 221L488 221L488 222L494 222L494 223L498 223L498 224L502 224L502 225L508 226L508 227L512 228L512 229L513 229L513 230L514 230L514 231L515 231L515 232L517 233L519 240L518 240L518 242L517 242L517 243L516 243L516 244L515 244L514 246L512 246L512 247L503 247L503 246L500 246L500 245L498 245L497 243L495 243L495 242L494 242L494 241L493 241L493 240L492 240L492 239L490 238L490 236L489 236L489 235L487 234L487 232L485 231L485 229L484 229L484 228L483 228L483 227L482 227L482 226L481 226L481 225L480 225L480 224L479 224L479 223L478 223ZM483 273L483 274L484 274L484 273Z" clip-rule="evenodd"/><path d="M108 608L109 608L109 607L115 607L115 606L127 606L127 607L129 607L129 608L133 609L134 611L136 611L136 612L137 612L137 613L138 613L138 614L139 614L139 615L140 615L140 616L141 616L141 617L142 617L142 618L143 618L143 619L144 619L144 620L146 621L146 623L147 623L147 624L149 625L149 627L151 628L151 630L152 630L152 632L153 632L154 636L156 637L156 639L157 639L157 641L158 641L158 644L159 644L159 646L160 646L160 648L161 648L161 650L162 650L163 654L161 655L161 654L160 654L160 653L159 653L159 652L158 652L158 651L157 651L157 650L156 650L156 649L155 649L154 647L152 647L152 646L151 646L150 644L148 644L148 643L144 642L143 640L140 640L140 639L138 639L138 638L136 638L136 637L134 637L134 636L132 636L132 635L126 634L126 633L124 633L124 632L120 631L119 629L117 629L117 628L116 628L116 627L115 627L115 626L114 626L114 625L112 624L112 622L111 622L111 620L110 620L110 616L109 616L109 609L108 609ZM123 576L124 576L124 573L125 573L125 571L126 571L126 570L127 570L127 569L128 569L129 567L132 567L132 566L133 566L133 567L137 567L137 568L141 569L141 570L142 570L142 571L143 571L143 572L144 572L144 573L146 574L146 576L148 577L148 579L150 580L150 582L151 582L151 585L152 585L152 587L153 587L153 591L154 591L154 596L155 596L156 613L157 613L157 622L158 622L158 628L159 628L159 631L158 631L158 632L156 631L156 629L155 629L155 627L154 627L153 623L151 622L151 620L150 620L149 616L147 615L147 613L146 613L146 612L145 612L145 611L143 610L143 608L142 608L142 607L141 607L141 606L140 606L140 605L139 605L139 604L137 603L137 601L136 601L136 600L135 600L135 599L134 599L134 598L133 598L133 597L132 597L132 596L131 596L131 595L130 595L130 594L128 593L128 591L127 591L127 589L125 588L125 585L124 585L124 581L123 581ZM126 658L128 657L128 655L129 655L130 653L132 653L133 651L137 651L137 650L145 650L145 651L151 652L151 653L153 653L153 654L157 655L158 657L160 657L160 658L161 658L162 660L164 660L164 661L165 661L165 662L166 662L166 663L167 663L167 664L168 664L168 665L169 665L169 666L170 666L170 667L172 668L172 670L173 670L173 671L174 671L174 672L175 672L175 673L176 673L176 674L178 675L178 677L179 677L179 678L181 679L181 681L182 681L182 682L181 682L181 683L179 683L179 682L177 682L177 681L174 681L174 680L171 680L171 679L167 679L167 678L163 678L163 677L141 676L141 675L137 675L137 674L134 674L133 672L131 672L131 671L130 671L130 670L128 669L128 667L127 667L127 665L126 665ZM153 694L154 694L154 692L155 692L155 691L156 691L156 690L157 690L158 688L160 688L160 687L162 687L162 686L165 686L165 685L176 685L176 686L180 686L180 687L183 687L183 688L186 688L186 689L189 689L189 690L191 690L191 689L190 689L190 687L188 686L188 684L186 683L186 681L184 680L184 678L183 678L183 677L181 676L180 672L179 672L179 671L178 671L178 670L176 669L176 667L175 667L174 663L173 663L173 662L172 662L172 660L170 659L170 657L169 657L169 655L168 655L168 652L167 652L167 650L166 650L166 647L165 647L165 645L166 645L166 644L167 644L167 645L169 646L170 650L171 650L171 648L170 648L170 645L169 645L169 643L168 643L168 641L167 641L167 639L166 639L166 636L165 636L165 634L164 634L164 630L163 630L163 626L162 626L162 622L161 622L161 617L160 617L160 610L159 610L159 601L158 601L158 584L159 584L159 577L160 577L160 572L161 572L161 567L162 567L163 561L164 561L164 559L165 559L165 557L166 557L166 555L167 555L168 551L169 551L169 550L170 550L170 548L171 548L171 547L173 546L173 544L174 544L174 543L175 543L175 542L176 542L176 541L177 541L177 540L178 540L179 538L181 538L181 537L182 537L182 536L183 536L184 534L188 533L188 532L189 532L189 531L191 530L191 531L192 531L192 533L191 533L191 537L190 537L190 541L189 541L189 545L188 545L188 549L187 549L187 553L186 553L186 557L185 557L185 562L184 562L184 566L183 566L183 571L182 571L182 576L181 576L181 580L180 580L180 585L179 585L179 591L178 591L177 603L176 603L176 611L175 611L175 626L174 626L174 634L175 634L175 646L176 646L176 653L175 653L175 654L173 653L173 655L174 655L174 656L175 656L175 658L176 658L176 659L178 660L178 662L180 662L180 663L182 664L182 666L183 666L184 670L186 671L187 675L189 676L189 678L191 679L191 681L192 681L192 682L193 682L193 683L194 683L194 684L195 684L195 685L196 685L196 686L197 686L197 687L199 688L199 690L200 690L200 691L201 691L201 692L202 692L202 693L203 693L203 694L204 694L204 695L205 695L205 696L206 696L207 698L209 698L209 699L210 699L210 700L211 700L211 701L212 701L213 703L215 703L216 705L220 706L220 707L221 707L222 709L221 709L221 710L219 710L219 709L217 709L217 708L214 708L214 707L210 707L210 706L207 706L207 705L204 705L204 704L199 704L199 703L184 703L184 704L178 704L178 705L174 705L174 706L169 706L169 707L161 707L161 706L158 706L157 704L155 704L155 703L154 703L154 701L153 701ZM171 650L171 651L172 651L172 650ZM172 652L172 653L173 653L173 652ZM181 626L182 626L182 622L183 622L183 619L184 619L184 616L185 616L185 614L186 614L186 613L188 612L188 610L189 610L189 609L191 609L192 607L194 607L194 606L198 606L198 607L199 607L199 608L200 608L200 609L202 610L202 612L203 612L203 615L204 615L204 618L205 618L205 627L204 627L204 635L203 635L203 642L202 642L202 649L201 649L201 669L202 669L202 675L203 675L203 679L204 679L204 683L203 683L202 685L201 685L201 684L199 683L199 681L198 681L198 680L196 679L196 677L195 677L195 676L194 676L194 674L192 673L192 671L191 671L190 667L188 666L188 664L187 664L187 661L186 661L186 659L185 659L185 656L184 656L184 653L183 653L183 650L182 650L182 645L181 645ZM208 662L209 662L209 658L210 658L211 654L212 654L212 653L213 653L213 652L214 652L214 651L215 651L215 650L216 650L217 648L219 648L219 647L220 647L220 648L224 649L224 650L225 650L225 651L227 652L227 654L228 654L228 656L229 656L229 659L230 659L230 671L231 671L231 679L232 679L232 683L233 683L234 689L235 689L236 693L238 694L238 696L240 697L240 699L241 699L241 700L242 700L242 701L243 701L243 702L244 702L244 703L245 703L246 705L248 705L249 707L251 707L252 709L254 709L255 711L257 711L257 712L259 712L259 713L261 713L261 714L264 714L264 715L266 715L266 716L269 716L269 717L272 717L272 718L280 719L280 720L291 721L292 723L291 723L291 724L272 724L272 723L264 723L264 722L259 722L259 721L255 721L255 720L252 720L252 719L250 719L250 718L247 718L247 717L245 717L245 716L243 716L243 715L241 715L241 714L237 713L237 712L236 712L236 711L234 711L233 709L231 709L231 708L230 708L229 706L227 706L227 705L226 705L226 704L225 704L225 703L224 703L224 702L223 702L223 701L222 701L222 700L221 700L221 699L219 698L219 696L218 696L218 695L217 695L217 694L215 693L214 689L212 688L212 685L211 685L211 683L210 683L210 680L209 680L209 676L208 676ZM266 668L267 668L267 667L275 667L275 668L281 668L281 669L285 669L285 670L289 671L289 672L290 672L291 674L293 674L293 675L295 676L295 678L296 678L296 679L297 679L297 680L299 681L299 683L301 684L301 686L303 687L303 704L302 704L302 705L300 705L300 704L298 704L298 703L296 703L296 702L294 702L294 701L290 700L289 698L287 698L287 697L286 697L286 696L285 696L285 695L284 695L284 694L283 694L283 693L282 693L282 692L281 692L281 691L280 691L280 690L279 690L279 689L278 689L278 688L276 687L276 685L275 685L275 684L274 684L274 682L272 681L272 679L271 679L271 677L270 677L270 675L269 675L269 673L268 673L268 671L267 671L267 669L266 669ZM295 652L296 652L296 651L298 651L299 653L301 653L301 654L303 655L303 681L302 681L302 682L300 681L300 679L299 679L299 677L298 677L298 675L297 675L297 671L296 671L296 667L295 667Z" clip-rule="evenodd"/><path d="M288 458L289 458L289 457L291 457L291 458L292 458L293 460L295 460L295 461L296 461L296 462L298 462L299 464L301 464L301 465L305 466L306 468L305 468L305 469L303 469L303 470L289 470L289 469L288 469ZM292 480L293 480L293 479L302 479L302 478L307 478L307 477L308 477L308 476L309 476L309 475L310 475L310 474L311 474L311 473L312 473L312 472L313 472L313 471L315 470L315 468L316 468L317 466L319 466L319 467L320 467L320 469L321 469L321 470L323 471L323 473L324 473L324 474L325 474L325 475L327 476L327 478L328 478L328 479L329 479L330 481L334 482L335 484L337 484L337 485L340 485L340 486L343 486L343 487L345 487L345 488L348 488L348 489L352 489L352 490L355 490L355 491L359 491L359 492L362 492L362 493L365 493L365 494L371 495L371 496L373 496L373 497L376 497L376 498L378 498L378 499L380 499L380 500L382 500L382 501L384 501L384 502L386 502L386 503L390 504L391 506L393 506L393 507L394 507L394 508L396 508L397 510L399 510L399 511L400 511L400 512L401 512L401 513L402 513L402 514L403 514L403 515L404 515L405 517L407 517L407 518L408 518L408 519L410 520L410 522L411 522L411 523L412 523L412 524L414 525L414 527L416 528L416 530L417 530L417 531L418 531L418 533L420 534L420 536L421 536L421 538L422 538L422 541L423 541L423 544L424 544L424 549L425 549L425 556L426 556L426 566L425 566L425 571L424 571L424 575L423 575L423 577L422 577L422 580L421 580L421 582L420 582L419 586L417 587L417 589L416 589L416 590L415 590L415 591L414 591L413 593L411 592L411 590L412 590L412 587L413 587L413 583L414 583L414 568L413 568L413 560L412 560L412 556L411 556L411 553L410 553L409 549L407 548L407 545L405 544L405 542L403 541L403 539L402 539L402 538L400 537L400 535L398 534L398 532L397 532L397 531L396 531L396 530L395 530L395 529L394 529L394 528L393 528L393 527L392 527L392 526L391 526L390 524L386 523L386 522L385 522L385 520L383 520L383 519L382 519L381 517L379 517L379 516L378 516L378 515L376 515L375 513L371 512L370 510L368 510L368 509L364 508L363 506L361 506L361 505L359 505L359 504L357 504L357 503L355 503L355 502L353 502L353 501L351 501L351 500L349 500L349 499L347 499L347 498L345 498L345 497L343 497L343 496L341 496L341 495L339 495L339 494L337 494L337 493L334 493L334 492L332 492L332 491L330 491L330 490L328 490L328 489L326 489L326 490L325 490L325 491L324 491L324 492L322 493L322 495L321 495L321 496L319 497L319 499L318 499L318 500L316 500L316 499L314 498L314 496L312 495L312 493L310 492L310 490L309 490L309 488L308 488L307 486L305 486L305 485L302 485L302 484L298 484L298 483L294 483L294 482L293 482ZM329 469L330 469L330 468L333 468L333 467L336 467L336 466L339 466L339 465L341 465L341 464L343 464L343 463L345 463L345 462L349 461L349 460L350 460L350 459L352 459L353 457L392 457L392 458L393 458L393 459L392 459L392 460L391 460L391 461L390 461L389 463L387 463L387 464L386 464L385 466L383 466L382 468L380 468L380 469L378 469L378 470L376 470L376 471L374 471L374 472L371 472L371 473L368 473L368 474L364 474L364 475L344 475L344 474L339 474L339 473L336 473L336 472L330 471Z" clip-rule="evenodd"/><path d="M212 319L213 319L213 318L215 318L215 317L217 317L217 316L219 316L219 315L221 315L221 314L222 314L223 312L225 312L225 310L227 309L227 307L228 307L228 305L229 305L229 303L230 303L230 300L231 300L231 296L233 295L233 296L234 296L234 298L235 298L235 302L236 302L236 304L237 304L237 306L238 306L239 310L240 310L240 311L241 311L241 312L242 312L242 313L243 313L244 315L246 315L246 316L248 316L248 317L252 318L253 320L252 320L252 321L250 321L250 322L248 322L248 323L246 323L246 324L244 324L243 326L241 326L241 327L240 327L240 329L238 330L238 332L236 333L236 335L235 335L235 337L234 337L234 340L232 341L232 340L231 340L231 338L230 338L230 336L229 336L229 334L228 334L228 332L227 332L227 330L226 330L226 329L225 329L225 328L224 328L224 327L223 327L222 325L220 325L219 323L217 323L217 322L214 322L214 321L213 321Z" clip-rule="evenodd"/><path d="M436 622L437 622L438 620L440 620L441 618L443 618L443 617L444 617L444 616L446 615L446 613L448 612L448 610L449 610L449 608L450 608L451 604L453 603L453 604L454 604L454 606L455 606L455 608L456 608L456 610L457 610L457 612L459 613L459 615L460 615L460 616L461 616L461 617L462 617L462 618L463 618L464 620L466 620L466 621L467 621L468 623L467 623L467 624L465 624L465 625L464 625L464 626L463 626L463 627L462 627L462 628L460 629L460 631L458 632L458 635L457 635L457 637L456 637L455 643L454 643L454 644L452 645L452 644L451 644L451 640L450 640L450 638L449 638L449 635L448 635L448 633L446 632L446 630L445 630L445 629L444 629L444 628L443 628L443 627L442 627L441 625L437 624Z" clip-rule="evenodd"/><path d="M558 574L559 574L560 572L563 572L563 571L565 571L565 570L568 570L568 569L571 569L571 568L576 568L576 567L580 567L580 568L585 568L585 569L588 569L588 570L590 570L590 571L591 571L592 573L594 573L594 574L595 574L595 575L596 575L596 576L598 577L598 579L597 579L597 580L595 580L595 581L593 581L592 583L589 583L589 584L585 584L585 585L578 585L578 584L572 583L572 582L570 582L570 581L568 581L568 580L566 580L566 579L562 578L562 577L561 577L561 576L559 576ZM575 620L576 620L576 613L577 613L577 609L578 609L579 603L580 603L580 601L581 601L582 597L584 596L584 594L585 594L585 593L586 593L586 592L587 592L587 591L588 591L588 590L589 590L589 589L590 589L590 588L591 588L592 586L594 586L595 584L597 584L597 583L599 583L599 582L601 582L601 581L602 581L602 582L604 583L605 594L604 594L604 599L603 599L603 602L602 602L601 606L599 607L599 609L598 609L598 610L597 610L597 611L596 611L596 612L595 612L595 613L594 613L593 615L591 615L591 616L590 616L589 618L585 619L584 621L582 621L582 622L581 622L581 623L579 623L578 625L576 625L576 624L575 624ZM587 544L588 544L588 537L589 537L589 534L591 533L592 535L594 535L594 536L595 536L595 537L596 537L596 538L597 538L597 539L598 539L598 540L599 540L599 541L600 541L600 542L601 542L601 543L602 543L602 544L604 545L604 547L605 547L605 549L606 549L606 551L607 551L607 555L608 555L608 567L607 567L607 570L606 570L606 572L605 572L605 574L604 574L603 576L601 576L601 575L600 575L600 574L599 574L599 573L598 573L598 572L597 572L597 571L596 571L596 570L595 570L595 569L593 568L593 566L591 565L591 563L590 563L590 561L589 561L589 558L588 558L588 552L587 552ZM605 578L606 578L606 577L607 577L607 576L608 576L609 574L611 574L611 573L612 573L612 572L613 572L613 571L614 571L615 569L617 569L617 568L618 568L618 567L619 567L620 565L622 565L622 564L623 564L624 562L626 562L626 561L628 561L628 560L630 560L630 559L632 559L632 558L638 557L638 556L640 556L640 555L642 555L642 554L646 553L647 551L651 550L651 549L652 549L652 548L654 548L655 546L657 546L657 545L658 545L658 544L659 544L659 543L660 543L660 542L661 542L661 541L662 541L662 540L664 539L664 537L666 536L666 534L667 534L668 530L669 530L669 529L671 530L671 533L670 533L670 536L669 536L669 539L668 539L667 545L666 545L666 547L665 547L665 549L664 549L664 551L663 551L663 553L662 553L661 557L659 558L658 562L657 562L657 563L656 563L656 564L654 565L654 567L653 567L653 568L652 568L652 569L651 569L651 570L650 570L650 571L649 571L649 572L648 572L648 573L647 573L647 574L646 574L645 576L643 576L642 578L640 578L639 580L637 580L637 581L635 581L635 582L632 582L632 583L629 583L629 584L625 584L625 585L619 585L619 584L614 584L614 583L610 583L610 582L606 581L606 580L605 580Z" clip-rule="evenodd"/><path d="M839 527L840 527L840 526L843 526L843 525L846 525L846 524L850 524L850 523L852 523L852 522L855 522L855 521L858 521L858 520L860 520L860 519L864 518L865 516L867 516L868 514L870 514L870 512L872 511L872 509L873 509L873 507L874 507L874 504L875 504L875 502L876 502L876 499L877 499L877 496L878 496L878 493L879 493L879 489L880 489L880 485L882 484L882 485L884 486L885 494L886 494L886 497L887 497L887 499L888 499L888 502L889 502L889 505L890 505L890 507L891 507L892 511L893 511L893 512L894 512L894 513L895 513L896 515L898 515L898 516L899 516L900 518L902 518L902 519L904 519L904 520L906 520L906 521L909 521L909 522L911 522L911 523L914 523L914 524L917 524L917 525L923 526L924 528L923 528L923 529L920 529L920 530L917 530L917 531L914 531L914 532L911 532L911 533L908 533L908 534L906 534L906 535L904 535L904 536L900 537L900 538L899 538L898 540L896 540L896 541L894 542L894 544L893 544L893 546L891 547L891 550L890 550L890 552L889 552L889 554L888 554L888 557L887 557L887 560L886 560L886 563L885 563L885 566L884 566L884 570L883 570L883 571L881 572L881 571L880 571L880 567L879 567L879 564L878 564L878 560L877 560L877 558L876 558L876 555L875 555L875 552L874 552L874 550L873 550L873 548L872 548L872 546L871 546L871 544L870 544L870 541L869 541L869 540L867 540L867 539L865 539L865 538L863 538L863 537L861 537L861 536L859 536L859 535L857 535L857 534L854 534L854 533L852 533L852 532L849 532L849 531L846 531L846 530L842 530L842 529L840 529Z" clip-rule="evenodd"/><path d="M1277 504L1278 504L1278 503L1280 503L1281 501L1283 501L1283 500L1284 500L1284 499L1285 499L1285 498L1286 498L1287 496L1289 496L1289 494L1290 494L1290 493L1291 493L1291 492L1293 491L1293 489L1295 488L1296 484L1298 483L1298 481L1299 481L1299 479L1300 479L1301 475L1302 475L1302 474L1304 474L1304 475L1305 475L1305 478L1306 478L1307 482L1309 483L1310 487L1312 488L1312 490L1313 490L1313 491L1314 491L1314 492L1316 493L1316 495L1317 495L1317 496L1318 496L1319 498L1321 498L1321 499L1322 499L1323 501L1325 501L1325 502L1326 502L1326 503L1327 503L1328 505L1327 505L1327 506L1325 506L1325 507L1324 507L1323 509L1321 509L1321 510L1320 510L1320 511L1319 511L1319 512L1318 512L1318 513L1317 513L1317 514L1316 514L1316 515L1315 515L1315 516L1313 517L1313 519L1311 520L1311 522L1309 523L1309 525L1308 525L1308 527L1307 527L1307 529L1306 529L1306 531L1305 531L1305 534L1304 534L1304 535L1302 535L1302 534L1301 534L1301 531L1299 530L1299 528L1298 528L1298 526L1297 526L1296 522L1294 521L1294 519L1293 519L1293 518L1292 518L1292 517L1291 517L1291 516L1290 516L1290 515L1289 515L1289 514L1288 514L1288 513L1287 513L1287 512L1286 512L1286 511L1285 511L1284 509L1282 509L1281 507L1279 507L1279 506L1278 506Z" clip-rule="evenodd"/><path d="M1514 613L1515 613L1516 611L1518 611L1518 610L1520 610L1520 609L1522 609L1522 608L1524 608L1524 607L1526 607L1526 606L1528 606L1528 605L1534 604L1534 603L1549 603L1549 604L1552 604L1552 605L1554 605L1554 606L1558 607L1558 608L1559 608L1560 610L1562 610L1562 611L1564 612L1564 614L1563 614L1563 615L1562 615L1562 616L1561 616L1560 618L1558 618L1558 619L1556 619L1556 620L1554 620L1554 621L1552 621L1552 622L1549 622L1549 623L1544 623L1544 624L1533 623L1533 622L1527 621L1527 620L1525 620L1525 619L1523 619L1523 618L1521 618L1521 617L1519 617L1519 616L1515 615ZM1556 587L1557 587L1557 581L1558 581L1559 575L1560 575L1560 573L1561 573L1561 571L1562 571L1562 569L1563 569L1563 567L1564 567L1564 565L1565 565L1566 561L1568 560L1568 561L1570 562L1570 564L1571 564L1571 566L1572 566L1572 568L1573 568L1573 570L1574 570L1574 572L1575 572L1576 576L1577 576L1577 579L1578 579L1578 584L1579 584L1579 594L1578 594L1578 597L1577 597L1577 599L1576 599L1575 603L1574 603L1574 604L1573 604L1573 605L1571 606L1571 608L1570 608L1569 610L1566 610L1566 609L1565 609L1565 608L1563 607L1563 605L1562 605L1562 604L1560 603L1559 599L1558 599ZM1557 631L1558 631L1559 625L1561 624L1561 622L1562 622L1562 621L1563 621L1563 620L1564 620L1564 619L1565 619L1565 618L1566 618L1567 616L1571 618L1571 620L1572 620L1572 621L1574 622L1574 624L1576 625L1576 627L1577 627L1577 630L1578 630L1578 634L1579 634L1579 641L1578 641L1578 645L1577 645L1576 651L1575 651L1575 653L1574 653L1574 655L1573 655L1573 657L1572 657L1572 659L1571 659L1571 661L1570 661L1570 663L1569 663L1568 665L1566 664L1565 660L1563 659L1563 657L1562 657L1562 655L1561 655L1561 652L1560 652L1560 650L1559 650L1558 644L1557 644ZM1570 613L1571 613L1571 612L1572 612L1573 610L1575 610L1575 609L1576 609L1577 607L1579 607L1579 606L1581 606L1581 605L1583 605L1583 604L1585 604L1585 603L1591 603L1591 602L1595 602L1595 603L1601 603L1601 604L1605 604L1605 605L1608 605L1608 606L1610 606L1610 607L1612 607L1612 608L1614 608L1614 609L1617 609L1617 610L1619 610L1619 611L1621 611L1621 612L1622 612L1622 613L1621 613L1620 615L1618 615L1618 616L1616 616L1616 617L1614 617L1614 618L1612 618L1612 619L1609 619L1609 620L1607 620L1607 621L1605 621L1605 622L1601 622L1601 623L1586 623L1586 622L1583 622L1583 621L1581 621L1581 620L1579 620L1579 619L1575 618L1575 617L1574 617L1574 616L1572 616L1572 615L1571 615Z" clip-rule="evenodd"/></clipPath>
  <pattern id="sk-print" width="31" height="29" patternUnits="userSpaceOnUse" fill="#DB781B" opacity=".13"><circle cx="3" cy="7" r=".7"/><circle cx="17" cy="19" r=".5"/><circle cx="26" cy="4" r=".6"/></pattern>
</defs>
<image href="/logo/Ornate%20SANKHYA%20Golden%20Wordmark.png" x="0" y="0" width="1774" height="887"/>
<path d="M261 256L262 256L262 250L263 250L263 246L264 246L264 244L265 244L266 240L267 240L267 239L268 239L269 237L271 237L272 235L274 235L274 234L277 234L277 233L283 233L284 235L283 235L283 236L282 236L282 237L281 237L281 238L280 238L279 240L277 240L277 242L276 242L276 243L274 244L274 246L272 247L272 249L271 249L271 251L270 251L270 253L269 253L269 255L268 255L268 258L267 258L267 261L266 261L266 264L265 264L265 271L264 271L264 273L263 273L263 274L261 273ZM265 275L266 275L266 272L267 272L268 266L269 266L270 262L272 261L272 259L273 259L273 258L274 258L274 257L275 257L275 256L276 256L276 255L277 255L277 254L278 254L278 253L279 253L279 252L280 252L280 251L281 251L282 249L284 249L285 247L287 247L287 246L289 246L289 245L291 245L291 244L293 244L293 243L296 243L296 242L299 242L299 241L303 241L303 240L309 240L309 239L322 239L322 240L323 240L322 242L318 242L318 243L310 244L310 245L307 245L307 246L305 246L305 247L302 247L302 248L300 248L300 249L298 249L298 250L294 251L293 253L291 253L291 254L290 254L290 255L289 255L289 256L288 256L288 257L287 257L287 258L286 258L286 259L285 259L285 260L284 260L284 261L283 261L283 262L282 262L282 263L280 264L280 266L278 267L278 269L277 269L277 271L276 271L276 274L275 274L275 277L274 277L274 281L273 281L273 287L272 287L272 298L273 298L273 301L272 301L272 302L271 302L271 301L269 300L269 297L268 297L268 295L267 295L267 293L266 293L266 290L265 290ZM288 231L289 231L290 229L292 229L293 227L295 227L295 226L297 226L297 225L299 225L299 224L302 224L302 223L306 223L306 222L316 222L316 223L320 223L320 224L323 224L323 225L325 225L325 226L327 226L327 227L331 228L331 229L332 229L332 230L333 230L333 231L334 231L334 232L335 232L335 233L336 233L336 234L337 234L337 235L338 235L338 236L339 236L339 237L340 237L340 238L341 238L342 240L341 240L341 241L339 241L339 240L336 240L336 239L333 239L333 238L329 238L329 237L323 237L323 236L305 236L305 237L300 237L300 238L297 238L296 236L294 236L294 235L292 235L292 234L289 234L289 233L288 233ZM300 193L301 193L301 192L316 192L316 193L318 193L318 194L321 194L321 195L323 195L323 196L324 196L324 197L325 197L325 198L326 198L326 199L327 199L327 200L328 200L328 201L329 201L329 202L330 202L330 203L332 204L332 206L334 207L334 209L335 209L335 212L336 212L336 214L337 214L337 217L338 217L338 220L339 220L339 223L340 223L340 226L341 226L341 228L339 229L339 228L338 228L338 227L337 227L337 226L336 226L336 225L335 225L335 224L334 224L334 223L333 223L332 221L330 221L330 220L329 220L328 218L326 218L325 216L321 215L320 213L318 213L318 212L315 212L315 211L313 211L313 210L311 210L311 209L309 209L309 208L305 207L305 206L304 206L304 205L302 204L302 203L303 203L303 202L305 202L305 201L304 201L304 199L302 198L302 196L301 196L301 194L300 194ZM332 183L333 183L333 179L334 179L334 176L335 176L335 174L336 174L336 172L337 172L338 168L340 167L341 163L342 163L342 162L343 162L344 160L345 160L345 161L346 161L346 162L348 163L348 165L350 166L350 168L351 168L352 172L354 173L354 175L355 175L355 177L356 177L356 180L358 181L358 184L359 184L359 194L358 194L358 198L357 198L356 204L355 204L355 206L354 206L354 208L353 208L353 210L352 210L352 212L351 212L351 214L350 214L350 216L349 216L349 219L348 219L348 221L347 221L347 223L346 223L346 224L344 223L344 221L343 221L343 219L342 219L342 216L341 216L341 214L340 214L340 212L339 212L339 210L338 210L338 208L337 208L337 206L336 206L336 204L335 204L335 201L334 201L334 198L333 198L333 195L332 195ZM350 228L351 228L351 225L352 225L352 222L353 222L353 218L354 218L354 216L355 216L355 213L356 213L356 211L357 211L357 209L358 209L358 207L359 207L360 203L361 203L361 202L362 202L362 200L363 200L363 199L364 199L364 198L365 198L365 197L366 197L366 196L367 196L368 194L370 194L371 192L373 192L373 191L375 191L375 190L379 190L379 189L393 189L393 190L397 190L398 192L400 192L400 193L402 194L402 195L401 195L401 196L400 196L400 197L399 197L399 198L398 198L398 199L397 199L397 200L396 200L396 201L395 201L394 203L392 203L391 205L389 205L389 206L387 206L386 208L384 208L384 209L382 209L382 210L379 210L379 211L377 211L377 212L375 212L375 213L371 214L370 216L366 217L365 219L363 219L363 220L362 220L362 221L361 221L361 222L360 222L360 223L359 223L358 225L356 225L356 226L354 227L354 229L353 229L353 230L351 230ZM352 239L353 239L353 238L354 238L354 237L356 236L356 234L357 234L357 233L358 233L358 232L359 232L360 230L362 230L362 229L363 229L363 228L365 228L366 226L368 226L368 225L370 225L370 224L372 224L372 223L375 223L375 222L380 222L380 221L392 221L392 222L397 222L397 223L400 223L400 224L406 225L406 226L408 226L408 227L410 227L410 228L412 228L413 230L415 230L415 231L416 231L416 233L415 233L415 234L414 234L414 233L410 233L410 234L408 234L408 233L399 233L399 232L397 232L397 233L377 233L377 234L372 234L372 235L369 235L369 236L366 236L366 237L360 238L360 239L358 239L358 240L355 240L354 242L352 241ZM370 238L371 238L371 237L375 237L375 236L380 236L380 235L397 235L397 236L403 236L403 237L407 237L407 238L410 238L410 239L416 240L416 241L418 241L418 242L422 243L423 245L425 245L425 246L426 246L426 247L427 247L428 249L430 249L430 250L432 251L432 253L433 253L433 254L434 254L434 255L435 255L435 256L436 256L436 257L437 257L437 258L438 258L438 259L439 259L439 260L440 260L441 262L440 262L440 263L438 263L438 262L437 262L437 261L436 261L436 260L435 260L434 258L432 258L432 257L430 257L429 255L427 255L427 254L425 254L425 253L423 253L423 252L420 252L420 251L418 251L418 250L416 250L416 249L413 249L413 248L410 248L410 247L407 247L407 246L404 246L404 245L401 245L401 244L396 244L396 243L391 243L391 242L385 242L385 241L377 241L377 240L371 240Z" fill="#fcd115" fill-rule="evenodd"/><path d="M231 364L232 364L232 363L237 363L237 364L238 364L238 366L239 366L239 370L240 370L239 380L238 380L238 383L237 383L237 386L236 386L236 390L235 390L235 393L234 393L234 396L233 396L233 397L231 396ZM241 423L243 422L243 423L248 423L248 424L256 425L256 426L258 426L258 427L261 427L261 428L263 428L263 429L264 429L264 430L266 430L267 432L269 432L269 433L270 433L270 434L271 434L271 435L272 435L272 436L273 436L273 437L274 437L274 438L275 438L275 439L276 439L276 440L278 441L278 443L279 443L279 444L280 444L280 446L281 446L281 447L283 448L283 450L284 450L284 451L285 451L285 452L286 452L286 453L287 453L287 454L288 454L288 455L289 455L289 456L290 456L290 457L291 457L291 458L292 458L293 460L295 460L295 461L296 461L296 462L298 462L299 464L301 464L301 465L305 466L306 468L305 468L305 469L303 469L303 470L283 470L283 469L275 468L275 467L273 467L273 466L271 466L271 465L269 465L269 464L265 463L264 461L262 461L262 460L261 460L261 459L260 459L259 457L257 457L257 456L256 456L256 455L254 454L254 452L253 452L253 451L251 450L251 448L250 448L250 447L249 447L249 445L247 444L247 442L246 442L246 439L245 439L245 437L244 437L244 434L243 434L243 432L242 432L242 428L241 428ZM275 411L276 411L276 405L277 405L278 397L279 397L279 395L280 395L280 394L281 394L282 396L284 396L284 397L285 397L285 398L286 398L286 399L287 399L287 400L288 400L288 401L289 401L289 402L290 402L290 403L291 403L291 404L293 405L293 407L294 407L294 409L295 409L295 412L296 412L296 427L295 427L295 432L296 432L296 441L297 441L297 446L298 446L299 452L300 452L301 456L303 457L303 459L305 460L304 462L302 462L302 461L301 461L301 460L299 460L299 459L298 459L297 457L295 457L295 456L294 456L294 455L293 455L293 454L292 454L292 453L291 453L291 452L290 452L290 451L289 451L289 450L288 450L288 449L287 449L287 448L286 448L286 447L284 446L284 444L282 443L282 441L281 441L281 439L280 439L280 437L279 437L279 435L278 435L277 429L276 429L276 424L275 424ZM298 418L299 418L299 412L300 412L300 408L301 408L302 402L303 402L303 400L304 400L304 397L305 397L305 395L306 395L306 393L307 393L307 391L308 391L309 387L310 387L310 386L311 386L311 384L313 383L314 379L315 379L315 378L316 378L316 376L318 375L318 373L319 373L320 369L321 369L321 368L323 367L323 368L325 369L325 371L327 372L327 374L329 375L329 377L331 378L332 382L334 383L334 385L335 385L335 387L336 387L336 389L337 389L337 391L338 391L338 393L339 393L339 395L340 395L340 398L341 398L341 400L342 400L342 403L343 403L343 407L344 407L344 411L345 411L345 418L346 418L346 427L345 427L345 434L344 434L343 442L342 442L342 443L340 443L340 442L339 442L339 438L340 438L340 436L339 436L339 429L338 429L338 426L337 426L336 420L335 420L335 418L334 418L334 416L333 416L333 414L332 414L331 410L329 409L329 407L328 407L328 406L326 405L326 403L325 403L325 402L324 402L324 401L323 401L322 399L321 399L321 400L320 400L320 402L319 402L319 403L318 403L318 404L317 404L317 405L316 405L316 406L314 407L314 409L313 409L313 410L311 411L311 413L309 414L308 418L306 419L306 421L305 421L305 424L304 424L304 426L303 426L302 437L301 437L300 439L298 438ZM305 440L306 440L306 434L307 434L307 432L308 432L308 430L309 430L309 428L310 428L311 424L312 424L312 423L314 422L314 420L315 420L315 419L316 419L316 418L317 418L317 417L318 417L319 415L323 414L323 415L324 415L324 417L325 417L325 418L327 419L327 421L329 422L329 424L330 424L330 426L331 426L331 428L332 428L332 432L333 432L333 435L334 435L334 446L333 446L333 450L332 450L332 452L330 453L330 455L329 455L329 456L328 456L328 457L327 457L327 458L326 458L326 459L325 459L325 460L324 460L323 462L321 462L320 464L317 464L317 463L316 463L316 462L314 462L314 461L313 461L313 460L312 460L312 459L310 458L310 456L308 455L308 453L307 453L307 450L306 450ZM308 476L309 476L309 475L310 475L310 474L311 474L311 473L312 473L312 472L313 472L313 471L315 470L315 468L316 468L317 466L319 466L319 467L320 467L320 469L321 469L321 470L323 471L323 473L324 473L324 474L325 474L325 475L326 475L327 477L326 477L326 478L309 478ZM329 469L330 469L330 468L333 468L333 467L336 467L336 466L339 466L339 465L341 465L341 464L343 464L343 463L345 463L345 462L349 461L349 460L350 460L350 459L352 459L352 458L353 458L354 456L356 456L356 455L357 455L357 454L358 454L358 453L359 453L360 451L362 451L362 450L363 450L363 449L364 449L364 448L365 448L366 446L368 446L369 444L371 444L371 443L373 443L373 442L375 442L375 441L378 441L378 440L381 440L381 439L384 439L384 438L392 438L392 437L403 437L403 438L405 437L405 438L406 438L406 440L405 440L405 442L404 442L403 446L401 447L401 449L399 450L399 452L398 452L398 453L396 454L396 456L395 456L395 457L394 457L394 458L393 458L393 459L392 459L392 460L391 460L391 461L390 461L389 463L387 463L387 464L386 464L385 466L383 466L382 468L380 468L380 469L378 469L378 470L376 470L376 471L374 471L374 472L371 472L371 473L368 473L368 474L364 474L364 475L344 475L344 474L339 474L339 473L336 473L336 472L330 471ZM334 461L335 461L335 460L336 460L336 458L337 458L337 457L339 456L339 454L341 453L341 451L342 451L342 448L343 448L343 446L344 446L344 443L345 443L345 440L346 440L346 437L347 437L347 428L348 428L348 423L349 423L349 420L350 420L350 418L351 418L352 414L353 414L353 413L354 413L354 412L355 412L355 411L356 411L356 410L357 410L357 409L358 409L359 407L361 407L361 406L363 406L363 405L365 405L365 404L367 404L367 403L369 403L369 402L372 402L372 403L373 403L372 423L371 423L371 427L370 427L370 430L369 430L369 432L368 432L368 434L367 434L367 436L366 436L365 440L364 440L364 441L363 441L363 443L362 443L362 444L360 445L360 447L359 447L359 448L358 448L358 449L357 449L357 450L356 450L355 452L353 452L353 453L352 453L352 454L351 454L350 456L348 456L347 458L345 458L345 459L343 459L343 460L341 460L341 461L339 461L339 462L337 462L337 463L335 463Z" fill="#fcd11a" fill-rule="evenodd"/><path d="M255 712L257 711L257 712L259 712L259 713L261 713L261 714L264 714L264 715L266 715L266 716L269 716L269 717L272 717L272 718L276 718L276 719L280 719L280 720L286 720L286 721L291 721L292 723L291 723L291 724L272 724L272 723L264 723L264 722L259 722L259 721L256 721L256 720L255 720ZM266 668L267 668L267 667L275 667L275 668L281 668L281 669L285 669L285 670L289 671L289 672L290 672L291 674L293 674L293 675L295 676L295 678L296 678L296 679L297 679L297 680L299 681L299 683L301 684L301 686L303 687L303 689L304 689L304 690L306 691L306 693L307 693L307 694L308 694L308 695L309 695L309 696L310 696L311 698L313 698L313 699L314 699L315 701L317 701L318 703L322 704L323 706L322 706L322 707L307 707L307 706L303 706L303 705L300 705L300 704L298 704L298 703L296 703L296 702L294 702L294 701L290 700L289 698L287 698L287 697L286 697L286 696L285 696L285 695L284 695L284 694L283 694L283 693L282 693L282 692L281 692L281 691L280 691L280 690L279 690L279 689L278 689L278 688L276 687L276 685L275 685L275 684L274 684L274 682L272 681L272 679L271 679L271 677L270 677L270 675L269 675L269 673L268 673L268 671L267 671L267 669L266 669ZM295 652L296 652L296 651L298 651L299 653L301 653L301 654L302 654L303 656L305 656L305 657L306 657L306 658L307 658L307 659L308 659L308 660L309 660L309 661L310 661L310 662L311 662L311 663L313 664L313 666L315 667L315 669L316 669L316 671L317 671L317 673L318 673L318 680L319 680L319 683L320 683L320 687L321 687L321 690L322 690L322 692L323 692L323 694L324 694L324 696L325 696L325 698L326 698L326 700L327 700L326 702L322 701L321 699L319 699L318 697L316 697L316 696L315 696L315 695L314 695L313 693L311 693L311 692L310 692L310 691L309 691L309 690L308 690L308 689L307 689L307 688L306 688L306 687L305 687L305 686L303 685L303 683L302 683L302 682L300 681L300 679L299 679L299 677L298 677L298 675L297 675L296 667L295 667ZM319 659L320 659L320 653L321 653L321 651L322 651L322 648L323 648L323 646L324 646L324 643L325 643L325 641L326 641L326 639L327 639L328 635L330 634L330 632L331 632L331 631L333 630L333 628L334 628L334 626L335 626L335 625L337 625L337 626L338 626L338 628L339 628L340 632L342 633L342 635L343 635L343 637L344 637L344 640L345 640L345 642L346 642L346 645L347 645L347 648L348 648L348 653L347 653L347 654L349 655L349 666L348 666L348 672L347 672L347 676L346 676L345 682L344 682L344 684L343 684L343 686L342 686L342 688L341 688L340 692L338 693L338 695L336 696L336 698L335 698L335 700L334 700L334 701L332 701L332 700L330 699L330 697L328 696L328 694L327 694L327 692L326 692L326 690L325 690L325 688L324 688L323 682L322 682L322 680L321 680L321 677L320 677L320 674L319 674ZM322 714L323 714L323 713L325 713L325 712L326 712L326 711L327 711L327 710L329 709L329 707L331 706L331 704L333 703L333 704L334 704L334 705L335 705L335 706L337 707L337 709L338 709L338 710L339 710L339 711L340 711L340 712L341 712L341 713L343 714L343 716L342 716L342 717L341 717L341 718L340 718L340 719L338 720L338 722L337 722L337 723L335 724L335 726L334 726L334 727L332 727L332 726L331 726L331 724L330 724L330 723L329 723L329 722L327 721L327 719L326 719L326 718L325 718L325 717L324 717L324 716L323 716ZM340 699L341 699L341 697L342 697L342 695L343 695L343 692L344 692L344 690L345 690L345 686L346 686L346 683L347 683L347 679L348 679L348 675L349 675L349 672L350 672L351 668L353 667L353 665L354 665L354 664L355 664L355 663L356 663L357 661L359 661L359 660L360 660L360 659L362 659L363 657L365 657L365 656L367 656L367 655L369 655L369 654L370 654L370 655L371 655L371 663L370 663L369 673L368 673L368 676L367 676L367 678L366 678L365 682L364 682L364 683L362 684L362 686L361 686L361 687L360 687L360 688L359 688L359 689L358 689L358 690L357 690L357 691L356 691L355 693L353 693L353 694L352 694L352 695L351 695L350 697L348 697L347 699L343 700L342 702L340 701ZM344 705L345 705L345 704L347 704L348 702L350 702L350 701L351 701L351 700L352 700L353 698L355 698L355 697L356 697L356 696L357 696L357 695L358 695L358 694L359 694L359 693L361 692L361 690L362 690L362 689L363 689L363 687L365 686L365 684L366 684L366 682L368 681L368 679L369 679L369 678L370 678L370 677L371 677L371 676L372 676L372 675L373 675L373 674L374 674L374 673L375 673L376 671L378 671L378 670L380 670L380 669L382 669L382 668L385 668L385 667L390 667L390 666L395 666L395 667L396 667L396 672L395 672L395 675L394 675L394 677L393 677L393 679L392 679L392 681L391 681L390 685L389 685L389 686L388 686L388 688L387 688L387 689L385 690L385 692L384 692L384 693L383 693L383 694L382 694L381 696L379 696L379 697L378 697L378 698L377 698L376 700L374 700L374 701L372 701L372 702L370 702L370 703L368 703L368 704L365 704L365 705L362 705L362 706L358 706L358 707L345 707Z" fill="#fdd119" fill-rule="evenodd"/><path d="M438 212L439 212L439 211L447 211L447 212L457 212L457 213L460 213L460 214L462 214L462 215L464 215L464 216L468 217L469 219L471 219L471 220L472 220L472 221L473 221L473 222L474 222L474 223L475 223L475 224L476 224L476 225L477 225L477 226L478 226L478 227L479 227L479 228L480 228L480 229L482 230L482 232L484 233L484 235L485 235L485 237L486 237L486 239L487 239L487 242L486 242L486 243L484 243L484 242L480 243L480 242L478 242L477 240L475 240L474 238L472 238L472 237L471 237L471 236L470 236L470 235L468 234L468 235L469 235L469 237L471 238L471 245L472 245L472 244L474 243L474 244L476 244L476 245L479 245L479 246L482 246L482 247L488 247L488 245L490 244L490 245L491 245L491 246L492 246L492 247L494 248L494 250L495 250L495 252L496 252L496 254L497 254L497 256L498 256L498 260L499 260L499 268L498 268L497 272L496 272L495 274L491 275L491 276L488 276L488 275L484 274L484 276L485 276L485 277L486 277L486 279L488 280L488 283L487 283L487 286L486 286L486 289L485 289L485 291L484 291L483 295L481 296L481 298L480 298L480 299L478 300L478 302L477 302L476 304L474 303L474 295L475 295L475 293L474 293L474 281L473 281L473 275L472 275L472 271L471 271L471 267L470 267L469 261L468 261L467 263L465 263L465 264L463 264L463 263L462 263L461 259L460 259L460 258L459 258L459 256L458 256L458 253L457 253L457 250L456 250L456 244L455 244L455 241L454 241L453 235L452 235L452 233L451 233L451 231L450 231L450 228L448 227L447 223L445 222L445 220L444 220L444 219L442 218L442 216L441 216L441 215L440 215L440 214L439 214ZM471 214L472 214L472 213L477 213L477 212L483 212L483 211L486 211L486 210L492 209L492 208L494 208L494 207L499 207L499 205L500 205L500 204L501 204L501 203L502 203L502 202L503 202L504 200L506 200L506 199L508 199L508 198L510 198L510 197L514 197L514 196L522 195L522 194L524 194L524 193L526 193L526 194L527 194L527 196L526 196L526 199L525 199L525 204L524 204L524 206L523 206L522 210L521 210L521 211L520 211L520 212L519 212L519 213L518 213L518 214L517 214L516 216L514 216L513 218L510 218L510 219L507 219L507 220L502 220L502 221L493 221L493 220L488 220L488 219L483 219L483 218L475 217L475 216L472 216ZM477 221L478 221L478 220L481 220L481 221L488 221L488 222L494 222L494 223L498 223L498 224L502 224L502 225L508 226L508 227L512 228L512 229L513 229L513 230L514 230L514 231L515 231L515 232L517 233L519 240L518 240L518 242L517 242L517 243L516 243L516 244L515 244L514 246L512 246L512 247L503 247L503 246L500 246L500 245L498 245L497 243L495 243L495 242L494 242L494 241L493 241L493 240L492 240L492 239L490 238L490 236L489 236L489 235L487 234L487 232L485 231L485 229L484 229L484 228L483 228L483 227L482 227L482 226L481 226L481 225L480 225L480 224L479 224L479 223L478 223ZM483 273L483 274L484 274L484 273Z" fill="#fccf12" fill-rule="evenodd"/><path d="M108 608L109 608L109 607L115 607L115 606L127 606L127 607L129 607L129 608L133 609L134 611L136 611L136 612L137 612L137 613L138 613L138 614L139 614L139 615L140 615L140 616L141 616L141 617L142 617L142 618L143 618L143 619L144 619L144 620L146 621L146 623L147 623L147 624L149 625L149 627L151 628L151 630L152 630L152 632L153 632L154 636L156 637L156 639L157 639L157 641L158 641L158 644L159 644L159 646L160 646L160 648L161 648L161 650L162 650L163 654L161 655L161 654L160 654L160 653L159 653L159 652L158 652L158 651L157 651L157 650L156 650L156 649L155 649L154 647L152 647L152 646L151 646L150 644L148 644L148 643L144 642L143 640L140 640L140 639L138 639L138 638L136 638L136 637L134 637L134 636L132 636L132 635L126 634L126 633L124 633L124 632L120 631L119 629L117 629L117 628L116 628L116 627L115 627L115 626L114 626L114 625L112 624L112 622L111 622L111 620L110 620L110 616L109 616L109 609L108 609ZM123 576L124 576L124 573L125 573L125 571L126 571L126 570L127 570L127 569L128 569L129 567L132 567L132 566L133 566L133 567L137 567L137 568L141 569L141 570L142 570L142 571L143 571L143 572L144 572L144 573L146 574L146 576L148 577L148 579L150 580L150 582L151 582L151 585L152 585L152 587L153 587L153 591L154 591L154 596L155 596L156 613L157 613L157 622L158 622L158 628L159 628L159 631L158 631L158 632L156 631L156 629L155 629L155 627L154 627L153 623L151 622L151 620L150 620L149 616L147 615L147 613L146 613L146 612L145 612L145 611L143 610L143 608L142 608L142 607L141 607L141 606L140 606L140 605L139 605L139 604L137 603L137 601L136 601L136 600L135 600L135 599L134 599L134 598L133 598L133 597L132 597L132 596L131 596L131 595L130 595L130 594L128 593L128 591L127 591L127 589L125 588L125 585L124 585L124 581L123 581ZM126 658L128 657L128 655L129 655L130 653L132 653L133 651L137 651L137 650L145 650L145 651L151 652L151 653L153 653L153 654L157 655L158 657L160 657L160 658L161 658L162 660L164 660L164 661L165 661L165 662L166 662L166 663L167 663L167 664L168 664L168 665L169 665L169 666L170 666L170 667L172 668L172 670L173 670L173 671L174 671L174 672L175 672L175 673L176 673L176 674L178 675L178 677L179 677L179 678L181 679L181 681L182 681L182 682L181 682L181 683L179 683L179 682L177 682L177 681L174 681L174 680L171 680L171 679L167 679L167 678L163 678L163 677L141 676L141 675L137 675L137 674L134 674L133 672L131 672L131 671L130 671L130 670L128 669L128 667L127 667L127 665L126 665ZM153 694L154 694L154 692L155 692L155 691L156 691L156 690L157 690L158 688L160 688L160 687L162 687L162 686L165 686L165 685L176 685L176 686L180 686L180 687L183 687L183 688L186 688L186 689L189 689L189 690L191 690L191 689L190 689L190 687L188 686L188 684L186 683L186 681L184 680L184 678L183 678L183 677L181 676L180 672L179 672L179 671L178 671L178 670L176 669L176 667L175 667L174 663L173 663L173 662L172 662L172 660L170 659L170 657L169 657L169 655L168 655L168 652L167 652L167 650L166 650L166 647L165 647L165 645L166 645L166 644L167 644L167 645L169 646L170 650L171 650L171 648L170 648L170 645L169 645L169 643L168 643L168 641L167 641L167 639L166 639L166 636L165 636L165 634L164 634L164 630L163 630L163 626L162 626L162 622L161 622L161 617L160 617L160 610L159 610L159 601L158 601L158 584L159 584L159 577L160 577L160 572L161 572L161 567L162 567L163 561L164 561L164 559L165 559L165 557L166 557L166 555L167 555L168 551L169 551L169 550L170 550L170 548L171 548L171 547L173 546L173 544L174 544L174 543L175 543L175 542L176 542L176 541L177 541L177 540L178 540L179 538L181 538L181 537L182 537L182 536L183 536L184 534L188 533L188 532L189 532L189 531L191 530L191 531L192 531L192 533L191 533L191 537L190 537L190 541L189 541L189 545L188 545L188 549L187 549L187 553L186 553L186 557L185 557L185 562L184 562L184 566L183 566L183 571L182 571L182 576L181 576L181 580L180 580L180 585L179 585L179 591L178 591L177 603L176 603L176 611L175 611L175 626L174 626L174 634L175 634L175 646L176 646L176 653L175 653L175 654L173 653L173 655L174 655L174 656L175 656L175 658L176 658L176 659L178 660L178 662L180 662L180 663L182 664L182 666L183 666L184 670L186 671L187 675L189 676L189 678L191 679L191 681L192 681L192 682L193 682L193 683L194 683L194 684L195 684L195 685L196 685L196 686L197 686L197 687L199 688L199 690L200 690L200 691L201 691L201 692L202 692L202 693L203 693L203 694L204 694L204 695L205 695L205 696L206 696L207 698L209 698L209 699L210 699L210 700L211 700L211 701L212 701L213 703L215 703L216 705L220 706L220 707L221 707L222 709L221 709L221 710L219 710L219 709L217 709L217 708L214 708L214 707L210 707L210 706L207 706L207 705L204 705L204 704L199 704L199 703L184 703L184 704L178 704L178 705L174 705L174 706L169 706L169 707L161 707L161 706L158 706L157 704L155 704L155 703L154 703L154 701L153 701ZM171 650L171 651L172 651L172 650ZM172 652L172 653L173 653L173 652ZM181 626L182 626L182 622L183 622L183 619L184 619L184 616L185 616L185 614L186 614L186 613L188 612L188 610L189 610L189 609L191 609L192 607L194 607L194 606L198 606L198 607L199 607L199 608L200 608L200 609L202 610L202 612L203 612L203 615L204 615L204 618L205 618L205 627L204 627L204 635L203 635L203 642L202 642L202 649L201 649L201 669L202 669L202 675L203 675L203 679L204 679L204 683L203 683L202 685L201 685L201 684L199 683L199 681L198 681L198 680L196 679L196 677L195 677L195 676L194 676L194 674L192 673L192 671L191 671L190 667L188 666L188 664L187 664L187 661L186 661L186 659L185 659L185 656L184 656L184 653L183 653L183 650L182 650L182 645L181 645ZM208 662L209 662L209 658L210 658L211 654L212 654L212 653L213 653L213 652L214 652L214 651L215 651L215 650L216 650L217 648L219 648L219 647L220 647L220 648L224 649L224 650L225 650L225 651L227 652L227 654L228 654L228 656L229 656L229 659L230 659L230 671L231 671L231 679L232 679L232 683L233 683L234 689L235 689L236 693L238 694L238 696L240 697L240 699L241 699L241 700L242 700L242 701L243 701L243 702L244 702L244 703L245 703L246 705L248 705L249 707L251 707L252 709L254 709L255 711L257 711L257 712L259 712L259 713L261 713L261 714L264 714L264 715L266 715L266 716L269 716L269 717L272 717L272 718L280 719L280 720L291 721L292 723L291 723L291 724L272 724L272 723L264 723L264 722L259 722L259 721L255 721L255 720L252 720L252 719L250 719L250 718L247 718L247 717L245 717L245 716L243 716L243 715L241 715L241 714L237 713L237 712L236 712L236 711L234 711L233 709L231 709L231 708L230 708L229 706L227 706L227 705L226 705L226 704L225 704L225 703L224 703L224 702L223 702L223 701L222 701L222 700L221 700L221 699L219 698L219 696L218 696L218 695L217 695L217 694L215 693L214 689L212 688L212 685L211 685L211 683L210 683L210 680L209 680L209 676L208 676ZM266 668L267 668L267 667L275 667L275 668L281 668L281 669L285 669L285 670L289 671L289 672L290 672L291 674L293 674L293 675L295 676L295 678L296 678L296 679L297 679L297 680L299 681L299 683L301 684L301 686L303 687L303 704L302 704L302 705L300 705L300 704L298 704L298 703L296 703L296 702L294 702L294 701L290 700L289 698L287 698L287 697L286 697L286 696L285 696L285 695L284 695L284 694L283 694L283 693L282 693L282 692L281 692L281 691L280 691L280 690L279 690L279 689L278 689L278 688L276 687L276 685L275 685L275 684L274 684L274 682L272 681L272 679L271 679L271 677L270 677L270 675L269 675L269 673L268 673L268 671L267 671L267 669L266 669ZM295 652L296 652L296 651L298 651L299 653L301 653L301 654L303 655L303 681L302 681L302 682L300 681L300 679L299 679L299 677L298 677L298 675L297 675L297 671L296 671L296 667L295 667Z" fill="#fcd019" fill-rule="evenodd"/><path d="M288 458L289 458L289 457L291 457L291 458L292 458L293 460L295 460L295 461L296 461L296 462L298 462L299 464L301 464L301 465L305 466L306 468L305 468L305 469L303 469L303 470L289 470L289 469L288 469ZM292 480L293 480L293 479L302 479L302 478L307 478L307 477L308 477L308 476L309 476L309 475L310 475L310 474L311 474L311 473L312 473L312 472L313 472L313 471L315 470L315 468L316 468L317 466L319 466L319 467L320 467L320 469L321 469L321 470L323 471L323 473L324 473L324 474L325 474L325 475L327 476L327 478L328 478L328 479L329 479L330 481L334 482L335 484L337 484L337 485L340 485L340 486L343 486L343 487L345 487L345 488L348 488L348 489L352 489L352 490L355 490L355 491L359 491L359 492L362 492L362 493L365 493L365 494L371 495L371 496L373 496L373 497L376 497L376 498L378 498L378 499L380 499L380 500L382 500L382 501L384 501L384 502L386 502L386 503L390 504L391 506L393 506L393 507L394 507L394 508L396 508L397 510L399 510L399 511L400 511L400 512L401 512L401 513L402 513L402 514L403 514L403 515L404 515L405 517L407 517L407 518L408 518L408 519L410 520L410 522L411 522L411 523L412 523L412 524L414 525L414 527L416 528L416 530L417 530L417 531L418 531L418 533L420 534L420 536L421 536L421 538L422 538L422 541L423 541L423 544L424 544L424 549L425 549L425 556L426 556L426 566L425 566L425 571L424 571L424 575L423 575L423 577L422 577L422 580L421 580L421 582L420 582L419 586L417 587L417 589L416 589L416 590L415 590L415 591L414 591L413 593L411 592L411 590L412 590L412 587L413 587L413 583L414 583L414 568L413 568L413 560L412 560L412 556L411 556L411 553L410 553L409 549L407 548L407 545L405 544L405 542L403 541L403 539L402 539L402 538L400 537L400 535L398 534L398 532L397 532L397 531L396 531L396 530L395 530L395 529L394 529L394 528L393 528L393 527L392 527L392 526L391 526L390 524L386 523L386 522L385 522L385 520L383 520L383 519L382 519L381 517L379 517L379 516L378 516L378 515L376 515L375 513L371 512L370 510L368 510L368 509L364 508L363 506L361 506L361 505L359 505L359 504L357 504L357 503L355 503L355 502L353 502L353 501L351 501L351 500L349 500L349 499L347 499L347 498L345 498L345 497L343 497L343 496L341 496L341 495L339 495L339 494L337 494L337 493L334 493L334 492L332 492L332 491L330 491L330 490L328 490L328 489L326 489L326 490L325 490L325 491L324 491L324 492L322 493L322 495L321 495L321 496L319 497L319 499L318 499L318 500L316 500L316 499L314 498L314 496L312 495L312 493L310 492L310 490L309 490L309 488L308 488L307 486L305 486L305 485L302 485L302 484L298 484L298 483L294 483L294 482L293 482ZM329 469L330 469L330 468L333 468L333 467L336 467L336 466L339 466L339 465L341 465L341 464L343 464L343 463L345 463L345 462L349 461L349 460L350 460L350 459L352 459L353 457L392 457L392 458L393 458L393 459L392 459L392 460L391 460L391 461L390 461L389 463L387 463L387 464L386 464L385 466L383 466L382 468L380 468L380 469L378 469L378 470L376 470L376 471L374 471L374 472L371 472L371 473L368 473L368 474L364 474L364 475L344 475L344 474L339 474L339 473L336 473L336 472L330 471Z" fill="#fdd31b" fill-rule="evenodd"/><path d="M212 319L213 319L213 318L215 318L215 317L217 317L217 316L219 316L219 315L221 315L221 314L222 314L223 312L225 312L225 310L227 309L227 307L228 307L228 305L229 305L229 303L230 303L230 300L231 300L231 296L233 295L233 296L234 296L234 298L235 298L235 302L236 302L236 304L237 304L237 306L238 306L239 310L240 310L240 311L241 311L241 312L242 312L242 313L243 313L244 315L246 315L246 316L248 316L248 317L252 318L253 320L252 320L252 321L250 321L250 322L248 322L248 323L246 323L246 324L244 324L243 326L241 326L241 327L240 327L240 329L238 330L238 332L236 333L236 335L235 335L235 337L234 337L234 340L232 341L232 340L231 340L231 338L230 338L230 336L229 336L229 334L228 334L228 332L227 332L227 330L226 330L226 329L225 329L225 328L224 328L224 327L223 327L222 325L220 325L219 323L217 323L217 322L214 322L214 321L213 321Z" fill="#fcd218" fill-rule="evenodd"/><path d="M436 622L437 622L438 620L440 620L441 618L443 618L443 617L444 617L444 616L446 615L446 613L448 612L448 610L449 610L449 608L450 608L451 604L453 603L453 604L454 604L454 606L455 606L455 608L456 608L456 610L457 610L457 612L459 613L459 615L460 615L460 616L461 616L461 617L462 617L462 618L463 618L464 620L466 620L466 621L467 621L468 623L467 623L467 624L465 624L465 625L464 625L464 626L463 626L463 627L462 627L462 628L460 629L460 631L458 632L458 635L457 635L457 637L456 637L455 643L454 643L454 644L452 645L452 644L451 644L451 640L450 640L450 638L449 638L449 635L448 635L448 633L446 632L446 630L445 630L445 629L444 629L444 628L443 628L443 627L442 627L441 625L437 624Z" fill="#fdd31a" fill-rule="evenodd"/><path d="M558 574L559 574L560 572L563 572L563 571L565 571L565 570L568 570L568 569L571 569L571 568L576 568L576 567L580 567L580 568L585 568L585 569L588 569L588 570L590 570L590 571L591 571L592 573L594 573L594 574L595 574L595 575L596 575L596 576L598 577L598 579L597 579L597 580L595 580L595 581L593 581L592 583L589 583L589 584L585 584L585 585L578 585L578 584L572 583L572 582L570 582L570 581L568 581L568 580L566 580L566 579L562 578L562 577L561 577L561 576L559 576ZM575 620L576 620L576 613L577 613L577 609L578 609L579 603L580 603L580 601L581 601L582 597L584 596L584 594L585 594L585 593L586 593L586 592L587 592L587 591L588 591L588 590L589 590L589 589L590 589L590 588L591 588L592 586L594 586L595 584L597 584L597 583L599 583L599 582L601 582L601 581L602 581L602 582L604 583L605 594L604 594L604 599L603 599L603 602L602 602L601 606L599 607L599 609L598 609L598 610L597 610L597 611L596 611L596 612L595 612L595 613L594 613L593 615L591 615L591 616L590 616L589 618L585 619L584 621L582 621L582 622L581 622L581 623L579 623L578 625L576 625L576 624L575 624ZM587 544L588 544L588 537L589 537L589 534L591 533L592 535L594 535L594 536L595 536L595 537L596 537L596 538L597 538L597 539L598 539L598 540L599 540L599 541L600 541L600 542L601 542L601 543L602 543L602 544L604 545L604 547L605 547L605 549L606 549L606 551L607 551L607 555L608 555L608 567L607 567L607 570L606 570L606 572L605 572L605 574L604 574L603 576L601 576L601 575L600 575L600 574L599 574L599 573L598 573L598 572L597 572L597 571L596 571L596 570L595 570L595 569L593 568L593 566L591 565L591 563L590 563L590 561L589 561L589 558L588 558L588 552L587 552ZM605 578L606 578L606 577L607 577L607 576L608 576L609 574L611 574L611 573L612 573L612 572L613 572L613 571L614 571L615 569L617 569L617 568L618 568L618 567L619 567L620 565L622 565L622 564L623 564L624 562L626 562L626 561L628 561L628 560L630 560L630 559L632 559L632 558L638 557L638 556L640 556L640 555L642 555L642 554L646 553L647 551L651 550L651 549L652 549L652 548L654 548L655 546L657 546L657 545L658 545L658 544L659 544L659 543L660 543L660 542L661 542L661 541L662 541L662 540L664 539L664 537L666 536L666 534L667 534L668 530L669 530L669 529L671 530L671 533L670 533L670 536L669 536L669 539L668 539L667 545L666 545L666 547L665 547L665 549L664 549L664 551L663 551L663 553L662 553L661 557L659 558L658 562L657 562L657 563L656 563L656 564L654 565L654 567L653 567L653 568L652 568L652 569L651 569L651 570L650 570L650 571L649 571L649 572L648 572L648 573L647 573L647 574L646 574L645 576L643 576L642 578L640 578L639 580L637 580L637 581L635 581L635 582L632 582L632 583L629 583L629 584L625 584L625 585L619 585L619 584L614 584L614 583L610 583L610 582L606 581L606 580L605 580Z" fill="#fdcf15" fill-rule="evenodd"/><path d="M839 527L840 527L840 526L843 526L843 525L846 525L846 524L850 524L850 523L852 523L852 522L855 522L855 521L858 521L858 520L860 520L860 519L864 518L865 516L867 516L868 514L870 514L870 512L872 511L872 509L873 509L873 507L874 507L874 504L875 504L875 502L876 502L876 499L877 499L877 496L878 496L878 493L879 493L879 489L880 489L880 485L882 484L882 485L884 486L885 494L886 494L886 497L887 497L887 499L888 499L888 502L889 502L889 505L890 505L890 507L891 507L892 511L893 511L893 512L894 512L894 513L895 513L896 515L898 515L898 516L899 516L900 518L902 518L902 519L904 519L904 520L906 520L906 521L909 521L909 522L911 522L911 523L914 523L914 524L917 524L917 525L923 526L924 528L923 528L923 529L920 529L920 530L917 530L917 531L914 531L914 532L911 532L911 533L908 533L908 534L906 534L906 535L904 535L904 536L900 537L900 538L899 538L898 540L896 540L896 541L894 542L894 544L893 544L893 546L891 547L891 550L890 550L890 552L889 552L889 554L888 554L888 557L887 557L887 560L886 560L886 563L885 563L885 566L884 566L884 570L883 570L883 571L881 572L881 571L880 571L880 567L879 567L879 564L878 564L878 560L877 560L877 558L876 558L876 555L875 555L875 552L874 552L874 550L873 550L873 548L872 548L872 546L871 546L871 544L870 544L870 541L869 541L869 540L867 540L867 539L865 539L865 538L863 538L863 537L861 537L861 536L859 536L859 535L857 535L857 534L854 534L854 533L852 533L852 532L849 532L849 531L846 531L846 530L842 530L842 529L840 529Z" fill="#fcd11e" fill-rule="evenodd"/><path d="M1277 504L1278 504L1278 503L1280 503L1281 501L1283 501L1283 500L1284 500L1284 499L1285 499L1285 498L1286 498L1287 496L1289 496L1289 494L1290 494L1290 493L1291 493L1291 492L1293 491L1293 489L1295 488L1296 484L1298 483L1298 481L1299 481L1299 479L1300 479L1301 475L1302 475L1302 474L1304 474L1304 475L1305 475L1305 478L1306 478L1307 482L1309 483L1310 487L1312 488L1312 490L1313 490L1313 491L1314 491L1314 492L1316 493L1316 495L1317 495L1317 496L1318 496L1319 498L1321 498L1321 499L1322 499L1323 501L1325 501L1325 502L1326 502L1326 503L1327 503L1328 505L1327 505L1327 506L1325 506L1325 507L1324 507L1323 509L1321 509L1321 510L1320 510L1320 511L1319 511L1319 512L1318 512L1318 513L1317 513L1317 514L1316 514L1316 515L1315 515L1315 516L1313 517L1313 519L1311 520L1311 522L1309 523L1309 525L1308 525L1308 527L1307 527L1307 529L1306 529L1306 531L1305 531L1305 534L1304 534L1304 535L1302 535L1302 534L1301 534L1301 531L1299 530L1299 528L1298 528L1298 526L1297 526L1296 522L1294 521L1294 519L1293 519L1293 518L1292 518L1292 517L1291 517L1291 516L1290 516L1290 515L1289 515L1289 514L1288 514L1288 513L1287 513L1287 512L1286 512L1286 511L1285 511L1284 509L1282 509L1281 507L1279 507L1279 506L1278 506Z" fill="#fcd01c" fill-rule="evenodd"/><path d="M1514 613L1515 613L1516 611L1518 611L1518 610L1520 610L1520 609L1522 609L1522 608L1524 608L1524 607L1526 607L1526 606L1528 606L1528 605L1534 604L1534 603L1549 603L1549 604L1552 604L1552 605L1554 605L1554 606L1558 607L1558 608L1559 608L1560 610L1562 610L1562 611L1564 612L1564 614L1563 614L1563 615L1562 615L1562 616L1561 616L1560 618L1558 618L1558 619L1556 619L1556 620L1554 620L1554 621L1552 621L1552 622L1549 622L1549 623L1544 623L1544 624L1533 623L1533 622L1527 621L1527 620L1525 620L1525 619L1523 619L1523 618L1521 618L1521 617L1519 617L1519 616L1515 615ZM1556 587L1557 587L1557 581L1558 581L1559 575L1560 575L1560 573L1561 573L1561 571L1562 571L1562 569L1563 569L1563 567L1564 567L1564 565L1565 565L1566 561L1568 560L1568 561L1570 562L1570 564L1571 564L1571 566L1572 566L1572 568L1573 568L1573 570L1574 570L1574 572L1575 572L1576 576L1577 576L1577 579L1578 579L1578 584L1579 584L1579 594L1578 594L1578 597L1577 597L1577 599L1576 599L1575 603L1574 603L1574 604L1573 604L1573 605L1571 606L1571 608L1570 608L1569 610L1566 610L1566 609L1565 609L1565 608L1563 607L1563 605L1562 605L1562 604L1560 603L1559 599L1558 599ZM1557 631L1558 631L1559 625L1561 624L1561 622L1562 622L1562 621L1563 621L1563 620L1564 620L1564 619L1565 619L1565 618L1566 618L1567 616L1571 618L1571 620L1572 620L1572 621L1574 622L1574 624L1576 625L1576 627L1577 627L1577 630L1578 630L1578 634L1579 634L1579 641L1578 641L1578 645L1577 645L1576 651L1575 651L1575 653L1574 653L1574 655L1573 655L1573 657L1572 657L1572 659L1571 659L1571 661L1570 661L1570 663L1569 663L1568 665L1566 664L1565 660L1563 659L1563 657L1562 657L1562 655L1561 655L1561 652L1560 652L1560 650L1559 650L1558 644L1557 644ZM1570 613L1571 613L1571 612L1572 612L1573 610L1575 610L1575 609L1576 609L1577 607L1579 607L1579 606L1581 606L1581 605L1583 605L1583 604L1585 604L1585 603L1591 603L1591 602L1595 602L1595 603L1601 603L1601 604L1605 604L1605 605L1608 605L1608 606L1610 606L1610 607L1612 607L1612 608L1614 608L1614 609L1617 609L1617 610L1619 610L1619 611L1621 611L1621 612L1622 612L1622 613L1621 613L1620 615L1618 615L1618 616L1616 616L1616 617L1614 617L1614 618L1612 618L1612 619L1609 619L1609 620L1607 620L1607 621L1605 621L1605 622L1601 622L1601 623L1586 623L1586 622L1583 622L1583 621L1581 621L1581 620L1579 620L1579 619L1575 618L1575 617L1574 617L1574 616L1572 616L1572 615L1571 615Z" fill="#fdcf13" fill-rule="evenodd"/>
<rect x="0" y="115" width="1774" height="690" fill="url(#sk-print)" clip-path="url(#sk-patches)"/>
<defs><clipPath id="orn-star-s"><path d="M212 319L213 319L213 318L215 318L215 317L217 317L217 316L219 316L219 315L221 315L221 314L222 314L223 312L225 312L225 310L227 309L227 307L228 307L228 305L229 305L229 303L230 303L230 300L231 300L231 296L233 295L233 296L234 296L234 298L235 298L235 302L236 302L236 304L237 304L237 306L238 306L239 310L240 310L240 311L241 311L241 312L242 312L242 313L243 313L244 315L246 315L246 316L248 316L248 317L252 318L253 320L252 320L252 321L250 321L250 322L248 322L248 323L246 323L246 324L244 324L243 326L241 326L241 327L240 327L240 329L238 330L238 332L236 333L236 335L235 335L235 337L234 337L234 340L232 341L232 340L231 340L231 338L230 338L230 336L229 336L229 334L228 334L228 332L227 332L227 330L226 330L226 329L225 329L225 328L224 328L224 327L223 327L222 325L220 325L219 323L217 323L217 322L214 322L214 321L213 321Z" clip-rule="evenodd"/></clipPath></defs><image href="/logo/Ornate%20SANKHYA%20Golden%20Wordmark.png" width="1774" height="887" clip-path="url(#orn-star-s)"/><defs><clipPath id="orn-star-s-lower"><path d="M436 622L437 622L438 620L440 620L441 618L443 618L443 617L444 617L444 616L446 615L446 613L448 612L448 610L449 610L449 608L450 608L451 604L453 603L453 604L454 604L454 606L455 606L455 608L456 608L456 610L457 610L457 612L459 613L459 615L460 615L460 616L461 616L461 617L462 617L462 618L463 618L464 620L466 620L466 621L467 621L468 623L467 623L467 624L465 624L465 625L464 625L464 626L463 626L463 627L462 627L462 628L460 629L460 631L458 632L458 635L457 635L457 637L456 637L455 643L454 643L454 644L452 645L452 644L451 644L451 640L450 640L450 638L449 638L449 635L448 635L448 633L446 632L446 630L445 630L445 629L444 629L444 628L443 628L443 627L442 627L441 625L437 624Z" clip-rule="evenodd"/></clipPath></defs><image href="/logo/Ornate%20SANKHYA%20Golden%20Wordmark.png" width="1774" height="887" clip-path="url(#orn-star-s-lower)"/><defs><clipPath id="orn-flower-a"><path d="M558 574L559 574L560 572L563 572L563 571L565 571L565 570L568 570L568 569L571 569L571 568L576 568L576 567L580 567L580 568L585 568L585 569L588 569L588 570L590 570L590 571L591 571L592 573L594 573L594 574L595 574L595 575L596 575L596 576L598 577L598 579L597 579L597 580L595 580L595 581L593 581L592 583L589 583L589 584L585 584L585 585L578 585L578 584L572 583L572 582L570 582L570 581L568 581L568 580L566 580L566 579L562 578L562 577L561 577L561 576L559 576ZM575 620L576 620L576 613L577 613L577 609L578 609L579 603L580 603L580 601L581 601L582 597L584 596L584 594L585 594L585 593L586 593L586 592L587 592L587 591L588 591L588 590L589 590L589 589L590 589L590 588L591 588L592 586L594 586L595 584L597 584L597 583L599 583L599 582L601 582L601 581L602 581L602 582L604 583L605 594L604 594L604 599L603 599L603 602L602 602L601 606L599 607L599 609L598 609L598 610L597 610L597 611L596 611L596 612L595 612L595 613L594 613L593 615L591 615L591 616L590 616L589 618L585 619L584 621L582 621L582 622L581 622L581 623L579 623L578 625L576 625L576 624L575 624ZM587 544L588 544L588 537L589 537L589 534L591 533L592 535L594 535L594 536L595 536L595 537L596 537L596 538L597 538L597 539L598 539L598 540L599 540L599 541L600 541L600 542L601 542L601 543L602 543L602 544L604 545L604 547L605 547L605 549L606 549L606 551L607 551L607 555L608 555L608 567L607 567L607 570L606 570L606 572L605 572L605 574L604 574L603 576L601 576L601 575L600 575L600 574L599 574L599 573L598 573L598 572L597 572L597 571L596 571L596 570L595 570L595 569L593 568L593 566L591 565L591 563L590 563L590 561L589 561L589 558L588 558L588 552L587 552ZM605 578L606 578L606 577L607 577L607 576L608 576L609 574L611 574L611 573L612 573L612 572L613 572L613 571L614 571L615 569L617 569L617 568L618 568L618 567L619 567L620 565L622 565L622 564L623 564L624 562L626 562L626 561L628 561L628 560L630 560L630 559L632 559L632 558L638 557L638 556L640 556L640 555L642 555L642 554L646 553L647 551L651 550L651 549L652 549L652 548L654 548L655 546L657 546L657 545L658 545L658 544L659 544L659 543L660 543L660 542L661 542L661 541L662 541L662 540L664 539L664 537L666 536L666 534L667 534L668 530L669 530L669 529L671 530L671 533L670 533L670 536L669 536L669 539L668 539L667 545L666 545L666 547L665 547L665 549L664 549L664 551L663 551L663 553L662 553L661 557L659 558L658 562L657 562L657 563L656 563L656 564L654 565L654 567L653 567L653 568L652 568L652 569L651 569L651 570L650 570L650 571L649 571L649 572L648 572L648 573L647 573L647 574L646 574L645 576L643 576L642 578L640 578L639 580L637 580L637 581L635 581L635 582L632 582L632 583L629 583L629 584L625 584L625 585L619 585L619 584L614 584L614 583L610 583L610 582L606 581L606 580L605 580Z" clip-rule="evenodd"/></clipPath></defs><image href="/logo/Ornate%20SANKHYA%20Golden%20Wordmark.png" width="1774" height="887" clip-path="url(#orn-flower-a)"/><defs><clipPath id="orn-star-n"><path d="M839 527L840 527L840 526L843 526L843 525L846 525L846 524L850 524L850 523L852 523L852 522L855 522L855 521L858 521L858 520L860 520L860 519L864 518L865 516L867 516L868 514L870 514L870 512L872 511L872 509L873 509L873 507L874 507L874 504L875 504L875 502L876 502L876 499L877 499L877 496L878 496L878 493L879 493L879 489L880 489L880 485L882 484L882 485L884 486L885 494L886 494L886 497L887 497L887 499L888 499L888 502L889 502L889 505L890 505L890 507L891 507L892 511L893 511L893 512L894 512L894 513L895 513L896 515L898 515L898 516L899 516L900 518L902 518L902 519L904 519L904 520L906 520L906 521L909 521L909 522L911 522L911 523L914 523L914 524L917 524L917 525L923 526L924 528L923 528L923 529L920 529L920 530L917 530L917 531L914 531L914 532L911 532L911 533L908 533L908 534L906 534L906 535L904 535L904 536L900 537L900 538L899 538L898 540L896 540L896 541L894 542L894 544L893 544L893 546L891 547L891 550L890 550L890 552L889 552L889 554L888 554L888 557L887 557L887 560L886 560L886 563L885 563L885 566L884 566L884 570L883 570L883 571L881 572L881 571L880 571L880 567L879 567L879 564L878 564L878 560L877 560L877 558L876 558L876 555L875 555L875 552L874 552L874 550L873 550L873 548L872 548L872 546L871 546L871 544L870 544L870 541L869 541L869 540L867 540L867 539L865 539L865 538L863 538L863 537L861 537L861 536L859 536L859 535L857 535L857 534L854 534L854 533L852 533L852 532L849 532L849 531L846 531L846 530L842 530L842 529L840 529Z" clip-rule="evenodd"/></clipPath></defs><image href="/logo/Ornate%20SANKHYA%20Golden%20Wordmark.png" width="1774" height="887" clip-path="url(#orn-star-n)"/><defs><clipPath id="orn-star-h"><path d="M1277 504L1278 504L1278 503L1280 503L1281 501L1283 501L1283 500L1284 500L1284 499L1285 499L1285 498L1286 498L1287 496L1289 496L1289 494L1290 494L1290 493L1291 493L1291 492L1293 491L1293 489L1295 488L1296 484L1298 483L1298 481L1299 481L1299 479L1300 479L1301 475L1302 475L1302 474L1304 474L1304 475L1305 475L1305 478L1306 478L1307 482L1309 483L1310 487L1312 488L1312 490L1313 490L1313 491L1314 491L1314 492L1316 493L1316 495L1317 495L1317 496L1318 496L1319 498L1321 498L1321 499L1322 499L1323 501L1325 501L1325 502L1326 502L1326 503L1327 503L1328 505L1327 505L1327 506L1325 506L1325 507L1324 507L1323 509L1321 509L1321 510L1320 510L1320 511L1319 511L1319 512L1318 512L1318 513L1317 513L1317 514L1316 514L1316 515L1315 515L1315 516L1313 517L1313 519L1311 520L1311 522L1309 523L1309 525L1308 525L1308 527L1307 527L1307 529L1306 529L1306 531L1305 531L1305 534L1304 534L1304 535L1302 535L1302 534L1301 534L1301 531L1299 530L1299 528L1298 528L1298 526L1297 526L1296 522L1294 521L1294 519L1293 519L1293 518L1292 518L1292 517L1291 517L1291 516L1290 516L1290 515L1289 515L1289 514L1288 514L1288 513L1287 513L1287 512L1286 512L1286 511L1285 511L1284 509L1282 509L1281 507L1279 507L1279 506L1278 506Z" clip-rule="evenodd"/></clipPath></defs><image href="/logo/Ornate%20SANKHYA%20Golden%20Wordmark.png" width="1774" height="887" clip-path="url(#orn-star-h)"/><defs><clipPath id="orn-flower-a-last"><path d="M1514 613L1515 613L1516 611L1518 611L1518 610L1520 610L1520 609L1522 609L1522 608L1524 608L1524 607L1526 607L1526 606L1528 606L1528 605L1534 604L1534 603L1549 603L1549 604L1552 604L1552 605L1554 605L1554 606L1558 607L1558 608L1559 608L1560 610L1562 610L1562 611L1564 612L1564 614L1563 614L1563 615L1562 615L1562 616L1561 616L1560 618L1558 618L1558 619L1556 619L1556 620L1554 620L1554 621L1552 621L1552 622L1549 622L1549 623L1544 623L1544 624L1533 623L1533 622L1527 621L1527 620L1525 620L1525 619L1523 619L1523 618L1521 618L1521 617L1519 617L1519 616L1515 615ZM1556 587L1557 587L1557 581L1558 581L1559 575L1560 575L1560 573L1561 573L1561 571L1562 571L1562 569L1563 569L1563 567L1564 567L1564 565L1565 565L1566 561L1568 560L1568 561L1570 562L1570 564L1571 564L1571 566L1572 566L1572 568L1573 568L1573 570L1574 570L1574 572L1575 572L1576 576L1577 576L1577 579L1578 579L1578 584L1579 584L1579 594L1578 594L1578 597L1577 597L1577 599L1576 599L1575 603L1574 603L1574 604L1573 604L1573 605L1571 606L1571 608L1570 608L1569 610L1566 610L1566 609L1565 609L1565 608L1563 607L1563 605L1562 605L1562 604L1560 603L1559 599L1558 599ZM1557 631L1558 631L1559 625L1561 624L1561 622L1562 622L1562 621L1563 621L1563 620L1564 620L1564 619L1565 619L1565 618L1566 618L1567 616L1571 618L1571 620L1572 620L1572 621L1574 622L1574 624L1576 625L1576 627L1577 627L1577 630L1578 630L1578 634L1579 634L1579 641L1578 641L1578 645L1577 645L1576 651L1575 651L1575 653L1574 653L1574 655L1573 655L1573 657L1572 657L1572 659L1571 659L1571 661L1570 661L1570 663L1569 663L1568 665L1566 664L1565 660L1563 659L1563 657L1562 657L1562 655L1561 655L1561 652L1560 652L1560 650L1559 650L1558 644L1557 644ZM1570 613L1571 613L1571 612L1572 612L1573 610L1575 610L1575 609L1576 609L1577 607L1579 607L1579 606L1581 606L1581 605L1583 605L1583 604L1585 604L1585 603L1591 603L1591 602L1595 602L1595 603L1601 603L1601 604L1605 604L1605 605L1608 605L1608 606L1610 606L1610 607L1612 607L1612 608L1614 608L1614 609L1617 609L1617 610L1619 610L1619 611L1621 611L1621 612L1622 612L1622 613L1621 613L1620 615L1618 615L1618 616L1616 616L1616 617L1614 617L1614 618L1612 618L1612 619L1609 619L1609 620L1607 620L1607 621L1605 621L1605 622L1601 622L1601 623L1586 623L1586 622L1583 622L1583 621L1581 621L1581 620L1579 620L1579 619L1575 618L1575 617L1574 617L1574 616L1572 616L1572 615L1571 615Z" clip-rule="evenodd"/></clipPath></defs><image href="/logo/Ornate%20SANKHYA%20Golden%20Wordmark.png" width="1774" height="887" clip-path="url(#orn-flower-a-last)"/></svg>