<svg xmlns="http://www.w3.org/2000/svg" viewBox="0 0 1835 432" role="img" aria-labelledby="sk-title sk-desc">
<title id="sk-title">Sankhya</title>
<desc id="sk-desc">Marigold serif lettering with indigo print shadows and Indian folk-inspired ornaments.</desc>
<defs>
  <g id="sk-letters"><path d="M208.810546875 389.091796875Q176.15185546875 389.091796875 147.8895263671875 381.435546875Q119.627197265625 373.779296875 100.031982421875 363.251953125L82.69775390625 380.0H61.343994140625L58.078125 257.2607421875H79.68310546875Q86.968505859375 274.7265625 98.2734375 294.1064453125Q109.578369140625 313.486328125 124.400390625 328.798828125Q139.724853515625 344.8291015625 158.6920166015625 354.8779296875Q177.6591796875 364.9267578125 203.032470703125 364.9267578125Q237.198486328125 364.9267578125 255.4119873046875 349.01611328125Q273.62548828125 333.10546875 273.62548828125 308.9404296875Q273.62548828125 289.08203125 258.1754150390625 275.56396484375Q242.725341796875 262.0458984375 210.31787109375 252.236328125Q189.21533203125 245.7763671875 171.5042724609375 240.2734375Q153.793212890625 234.7705078125 138.217529296875 229.0283203125Q102.29296875 215.390625 84.8331298828125 190.029296875Q67.373291015625 164.66796875 67.373291015625 133.3251953125Q67.373291015625 113.466796875 76.417236328125 95.16357421875Q85.461181640625 76.8603515625 102.79541015625 62.265625Q119.3759765625 48.6279296875 145.251708984375 40.0146484375Q171.12744140625 31.4013671875 201.525146484375 31.4013671875Q231.169189453125 31.4013671875 257.044921875 39.17724609375Q282.920654296875 46.953125 297.74267578125 54.8486328125L313.067138671875 40.4931640625H334.92333984375L336.93310546875 156.2939453125H315.328125Q307.79150390625 137.6318359375 297.6170654296875 118.13232421875Q287.442626953125 98.6328125 276.1376953125 85.712890625Q263.827880859375 71.8359375 247.749755859375 63.58154296875Q231.671630859375 55.3271484375 210.066650390625 55.3271484375Q182.934814453125 55.3271484375 165.7261962890625 69.921875Q148.517578125 84.5166015625 148.517578125 106.0498046875Q148.517578125 126.38671875 163.4652099609375 139.306640625Q178.412841796875 152.2265625 210.066650390625 162.0361328125Q228.656982421875 168.017578125 248.0009765625 173.9990234375Q267.344970703125 179.98046875 282.418212890625 185.4833984375Q318.84521484375 198.8818359375 337.8123779296875 222.44873046875Q356.779541015625 246.015625 356.779541015625 280.947265625Q356.779541015625 302.958984375 345.97705078125 323.53515625Q335.174560546875 344.111328125 316.83544921875 357.7490234375Q296.73779296875 372.822265625 270.359619140625 380.95703125Q243.9814453125 389.091796875 208.810546875 389.091796875Z"/><path d="M608.608349609375 352.0H494.394580078125V339.05078125Q502.373291015625 338.38671875 513.159326171875 335.8134765625Q523.945361328125 333.240234375 523.945361328125 329.421875Q523.945361328125 328.09375 523.7237304687501 326.43359375Q523.502099609375 324.7734375 522.467822265625 321.951171875L504.589599609375 273.142578125H432.190185546875Q429.678369140625 279.94921875 426.6494140625 289.080078125Q423.620458984375 298.2109375 421.404150390625 305.349609375Q418.596826171875 314.646484375 418.0796875 318.796875Q417.562548828125 322.947265625 417.562548828125 324.607421875Q417.562548828125 329.919921875 424.72861328125 333.6552734375Q431.894677734375 337.390625 448.590869140625 339.05078125V352.0H362.598095703125V339.05078125Q367.473974609375 338.71875 373.60576171875 337.3076171875Q379.737548828125 335.896484375 383.283642578125 333.40625Q389.341552734375 329.421875 393.5525390625 323.611328125Q397.763525390625 317.80078125 400.570849609375 309.83203125Q417.710302734375 263.181640625 434.9236328125 216.365234375Q452.136962890625 169.548828125 472.970263671875 113.103515625H502.52104492187505Q531.480810546875 193.123046875 547.8814941406249 239.607421875Q564.282177734375 286.091796875 575.806982421875 316.638671875Q577.727783203125 321.619140625 580.682861328125 325.6865234375Q583.637939453125 329.75390625 589.104833984375 333.40625Q593.241943359375 336.0625 598.708837890625 337.390625Q604.175732421875 338.71875 608.608349609375 339.05078125ZM498.531689453125 256.70703125 468.094384765625 171.375 438.100341796875 256.70703125Z"/><path d="M844.3680175781251 129.373046875Q840.2309082031251 129.87109375 832.5477050781251 131.19921875Q824.864501953125 132.52734375 818.658837890625 137.673828125Q813.191943359375 142.15625 810.9017578125 153.0302734375Q808.611572265625 163.904296875 808.611572265625 184.98828125V353.328125H782.3113769531251L651.696923828125 171.208984375V281.775390625Q651.696923828125 302.361328125 654.1348632812501 313.0693359375Q656.572802734375 323.77734375 662.039697265625 328.7578125Q666.029052734375 332.41015625 674.746533203125 335.232421875Q683.464013671875 338.0546875 688.635400390625 339.05078125V352.0H598.505517578125V339.05078125Q604.267919921875 338.552734375 611.7294921875 336.6435546875Q619.191064453125 334.734375 624.214697265625 330.75Q629.977099609375 325.935546875 632.11953125 316.2236328125Q634.261962890625 306.51171875 634.261962890625 283.6015625V172.0390625Q634.261962890625 163.73828125 631.9717773437501 156.3505859375Q629.6815917968751 148.962890625 624.805712890625 143.650390625Q619.634326171875 138.005859375 612.9115234375 134.7685546875Q606.188720703125 131.53125 597.618994140625 129.705078125V116.423828125H676.519580078125L791.1766113281251 275.798828125V186.6484375Q791.1766113281251 165.3984375 788.664794921875 155.0224609375Q786.152978515625 144.646484375 780.686083984375 139.666015625Q776.4012207031251 135.84765625 767.979248046875 133.1083984375Q759.557275390625 130.369140625 754.385888671875 129.373046875V116.423828125H844.3680175781251Z"/><path d="M1096.8238769531251 352.0H1013.786181640625Q995.0214355468751 319.626953125 979.9505371093751 297.87890625Q964.8796386718751 276.130859375 941.386767578125 243.259765625H933.7035644531251V317.302734375Q933.7035644531251 323.279296875 935.6243652343751 327.4296875Q937.5451660156251 331.580078125 943.3075683593751 334.40234375Q945.9671386718751 335.73046875 951.2124023437501 337.05859375Q956.4576660156251 338.38671875 961.6290527343751 339.05078125V352.0H850.2226074218751V339.05078125Q854.211962890625 338.71875 861.5257812500001 338.0546875Q868.8395996093751 337.390625 871.7946777343751 336.0625Q877.113818359375 333.73828125 879.182373046875 329.587890625Q881.2509277343751 325.4375 881.2509277343751 319.12890625V152.1171875Q881.2509277343751 146.306640625 879.4778808593751 142.322265625Q877.7048339843751 138.337890625 871.7946777343751 135.18359375Q867.2143066406251 132.859375 860.713134765625 131.365234375Q854.211962890625 129.87109375 850.2226074218751 129.373046875V116.423828125H965.3229003906251V129.373046875Q960.7425292968751 129.87109375 954.315234375 130.7841796875Q947.8879394531251 131.697265625 943.3075683593751 133.357421875Q937.5451660156251 135.515625 935.6243652343751 140.1640625Q933.7035644531251 144.8125 933.7035644531251 150.45703125V229.8125H939.909228515625Q951.4340332031251 218.025390625 966.8004394531251 201.423828125Q982.1668457031251 184.822265625 990.5888183593751 174.197265625Q1002.4091308593751 159.421875 1007.9499023437501 150.7890625Q1013.4906738281251 142.15625 1013.4906738281251 135.84765625Q1013.4906738281251 133.025390625 1008.1715332031251 131.53125Q1002.8523925781251 130.037109375 991.9186035156251 129.373046875V116.423828125H1083.082763671875V129.373046875Q1066.5343261718751 131.365234375 1055.305029296875 136.0966796875Q1044.075732421875 140.828125 1032.994189453125 151.951171875Q1017.1845214843751 167.888671875 1006.9156250000001 179.5927734375Q996.6467285156251 191.296875 980.541552734375 209.55859375Q994.7259277343751 228.982421875 1014.6727050781251 257.1220703125Q1034.619482421875 285.26171875 1054.418505859375 311.990234375Q1059.442138671875 318.796875 1065.9433105468752 325.0224609375Q1072.4444824218751 331.248046875 1080.275439453125 335.06640625Q1083.969287109375 336.892578125 1088.697412109375 337.888671875Q1093.425537109375 338.884765625 1096.8238769531251 339.05078125Z"/><path d="M1346.620166015625 352.0H1233.292919921875V339.05078125Q1236.986767578125 338.71875 1244.078955078125 338.0546875Q1251.171142578125 337.390625 1253.830712890625 336.0625Q1259.297607421875 333.572265625 1261.366162109375 329.5048828125Q1263.434716796875 325.4375 1263.434716796875 319.12890625V237.947265625H1173.895849609375V317.302734375Q1173.895849609375 322.947265625 1176.0382812500002 327.4296875Q1178.180712890625 331.912109375 1183.352099609375 334.40234375Q1186.159423828125 335.73046875 1192.956103515625 337.224609375Q1199.752783203125 338.71875 1204.037646484375 339.05078125V352.0H1090.710400390625V339.05078125Q1094.404248046875 338.884765625 1101.5703125 337.9716796875Q1108.736376953125 337.05859375 1111.986962890625 335.73046875Q1117.306103515625 333.572265625 1119.374658203125 329.1728515625Q1121.443212890625 324.7734375 1121.443212890625 318.796875V152.1171875Q1121.443212890625 146.306640625 1119.5962890625 142.322265625Q1117.749365234375 138.337890625 1111.986962890625 135.349609375Q1107.702099609375 133.19140625 1100.757666015625 131.4482421875Q1093.813232421875 129.705078125 1090.710400390625 129.373046875V116.423828125H1204.037646484375V129.373046875Q1199.457275390625 129.705078125 1193.103857421875 131.033203125Q1186.750439453125 132.361328125 1183.352099609375 133.5234375Q1177.589697265625 135.681640625 1175.7427734375 140.4130859375Q1173.895849609375 145.14453125 1173.895849609375 150.45703125V220.84765625H1263.434716796875V152.1171875Q1263.434716796875 146.306640625 1261.513916015625 142.322265625Q1259.593115234375 138.337890625 1253.830712890625 135.349609375Q1249.989111328125 133.357421875 1243.56181640625 131.6142578125Q1237.134521484375 129.87109375 1233.292919921875 129.373046875V116.423828125H1346.620166015625V129.373046875Q1341.892041015625 129.705078125 1335.981884765625 130.7841796875Q1330.071728515625 131.86328125 1325.343603515625 133.5234375Q1319.728955078125 135.681640625 1317.8081542968748 140.330078125Q1315.887353515625 144.978515625 1315.887353515625 150.45703125V317.302734375Q1315.887353515625 323.279296875 1317.8081542968748 327.4296875Q1319.728955078125 331.580078125 1325.343603515625 334.40234375Q1328.889697265625 336.0625 1335.6125000000002 337.390625Q1342.335302734375 338.71875 1346.620166015625 339.05078125Z"/><path d="M1581.345556640625 129.373046875Q1576.026416015625 130.037109375 1571.593798828125 131.53125Q1567.161181640625 133.025390625 1563.171826171875 135.681640625Q1556.818408203125 139.666015625 1551.86865234375 145.8916015625Q1546.918896484375 152.1171875 1542.190771484375 159.75390625Q1532.586767578125 175.525390625 1522.02236328125 194.0361328125Q1511.457958984375 212.546875 1499.046630859375 234.79296875Q1490.920166015625 248.904296875 1489.0732421875 256.4580078125Q1487.226318359375 264.01171875 1487.226318359375 282.60546875V315.974609375Q1487.226318359375 321.951171875 1489.22099609375 326.43359375Q1491.215673828125 330.916015625 1496.830322265625 333.73828125Q1499.342138671875 334.900390625 1507.468603515625 336.8095703125Q1515.595068359375 338.71875 1519.436669921875 339.05078125V352.0H1402.563330078125V339.05078125Q1406.700439453125 338.71875 1414.45751953125 337.72265625Q1422.214599609375 336.7265625 1425.317431640625 335.3984375Q1430.784326171875 332.7421875 1432.77900390625 328.3427734375Q1434.773681640625 323.943359375 1434.773681640625 317.634765625V276.130859375Q1434.773681640625 270.65234375 1434.625927734375 266.501953125Q1434.478173828125 262.3515625 1433.591650390625 259.529296875Q1432.557373046875 256.375 1430.045556640625 251.4775390625Q1427.533740234375 246.580078125 1423.544384765625 238.77734375Q1412.167333984375 216.365234375 1401.529052734375 196.27734375Q1390.890771484375 176.189453125 1381.286767578125 158.591796875Q1376.263134765625 149.4609375 1371.165625 143.8994140625Q1366.068115234375 138.337890625 1360.748974609375 134.8515625Q1356.759619140625 132.361328125 1351.07109375 131.033203125Q1345.382568359375 129.705078125 1340.802197265625 129.373046875V116.423828125H1460.926123046875V129.373046875Q1444.377685546875 129.87109375 1438.615283203125 131.9462890625Q1432.852880859375 134.021484375 1432.852880859375 137.673828125Q1432.852880859375 139.5 1434.9953125000002 144.978515625Q1437.137744140625 150.45703125 1442.604638671875 161.912109375Q1447.628271484375 172.703125 1457.30615234375 191.62890625Q1466.984033203125 210.5546875 1480.577392578125 235.955078125Q1508.650634765625 185.984375 1519.141162109375 166.1455078125Q1529.631689453125 146.306640625 1529.631689453125 141.82421875Q1529.631689453125 136.1796875 1523.49990234375 133.19140625Q1517.368115234375 130.203125 1503.627001953125 129.373046875V116.423828125H1581.345556640625Z"/><path d="M1802.034326171875 352.0H1687.820556640625V339.05078125Q1695.799267578125 338.38671875 1706.585302734375 335.8134765625Q1717.371337890625 333.240234375 1717.371337890625 329.421875Q1717.371337890625 328.09375 1717.14970703125 326.43359375Q1716.928076171875 324.7734375 1715.893798828125 321.951171875L1698.015576171875 273.142578125H1625.616162109375Q1623.1043457031249 279.94921875 1620.075390625 289.080078125Q1617.046435546875 298.2109375 1614.830126953125 305.349609375Q1612.0228027343749 314.646484375 1611.5056640624998 318.796875Q1610.988525390625 322.947265625 1610.988525390625 324.607421875Q1610.988525390625 329.919921875 1618.1545898437498 333.6552734375Q1625.3206542968749 337.390625 1642.016845703125 339.05078125V352.0H1556.024072265625V339.05078125Q1560.899951171875 338.71875 1567.03173828125 337.3076171875Q1573.163525390625 335.896484375 1576.709619140625 333.40625Q1582.767529296875 329.421875 1586.978515625 323.611328125Q1591.189501953125 317.80078125 1593.996826171875 309.83203125Q1611.136279296875 263.181640625 1628.349609375 216.365234375Q1645.562939453125 169.548828125 1666.396240234375 113.103515625H1695.947021484375Q1724.906787109375 193.123046875 1741.307470703125 239.607421875Q1757.708154296875 286.091796875 1769.232958984375 316.638671875Q1771.153759765625 321.619140625 1774.108837890625 325.6865234375Q1777.063916015625 329.75390625 1782.530810546875 333.40625Q1786.667919921875 336.0625 1792.1348144531248 337.390625Q1797.601708984375 338.71875 1802.034326171875 339.05078125ZM1691.957666015625 256.70703125 1661.5203613281249 171.375 1631.526318359375 256.70703125Z"/></g>
  <clipPath id="sk-face"><path d="M208.810546875 389.091796875Q176.15185546875 389.091796875 147.8895263671875 381.435546875Q119.627197265625 373.779296875 100.031982421875 363.251953125L82.69775390625 380.0H61.343994140625L58.078125 257.2607421875H79.68310546875Q86.968505859375 274.7265625 98.2734375 294.1064453125Q109.578369140625 313.486328125 124.400390625 328.798828125Q139.724853515625 344.8291015625 158.6920166015625 354.8779296875Q177.6591796875 364.9267578125 203.032470703125 364.9267578125Q237.198486328125 364.9267578125 255.4119873046875 349.01611328125Q273.62548828125 333.10546875 273.62548828125 308.9404296875Q273.62548828125 289.08203125 258.1754150390625 275.56396484375Q242.725341796875 262.0458984375 210.31787109375 252.236328125Q189.21533203125 245.7763671875 171.5042724609375 240.2734375Q153.793212890625 234.7705078125 138.217529296875 229.0283203125Q102.29296875 215.390625 84.8331298828125 190.029296875Q67.373291015625 164.66796875 67.373291015625 133.3251953125Q67.373291015625 113.466796875 76.417236328125 95.16357421875Q85.461181640625 76.8603515625 102.79541015625 62.265625Q119.3759765625 48.6279296875 145.251708984375 40.0146484375Q171.12744140625 31.4013671875 201.525146484375 31.4013671875Q231.169189453125 31.4013671875 257.044921875 39.17724609375Q282.920654296875 46.953125 297.74267578125 54.8486328125L313.067138671875 40.4931640625H334.92333984375L336.93310546875 156.2939453125H315.328125Q307.79150390625 137.6318359375 297.6170654296875 118.13232421875Q287.442626953125 98.6328125 276.1376953125 85.712890625Q263.827880859375 71.8359375 247.749755859375 63.58154296875Q231.671630859375 55.3271484375 210.066650390625 55.3271484375Q182.934814453125 55.3271484375 165.7261962890625 69.921875Q148.517578125 84.5166015625 148.517578125 106.0498046875Q148.517578125 126.38671875 163.4652099609375 139.306640625Q178.412841796875 152.2265625 210.066650390625 162.0361328125Q228.656982421875 168.017578125 248.0009765625 173.9990234375Q267.344970703125 179.98046875 282.418212890625 185.4833984375Q318.84521484375 198.8818359375 337.8123779296875 222.44873046875Q356.779541015625 246.015625 356.779541015625 280.947265625Q356.779541015625 302.958984375 345.97705078125 323.53515625Q335.174560546875 344.111328125 316.83544921875 357.7490234375Q296.73779296875 372.822265625 270.359619140625 380.95703125Q243.9814453125 389.091796875 208.810546875 389.091796875Z"/><path d="M608.608349609375 352.0H494.394580078125V339.05078125Q502.373291015625 338.38671875 513.159326171875 335.8134765625Q523.945361328125 333.240234375 523.945361328125 329.421875Q523.945361328125 328.09375 523.7237304687501 326.43359375Q523.502099609375 324.7734375 522.467822265625 321.951171875L504.589599609375 273.142578125H432.190185546875Q429.678369140625 279.94921875 426.6494140625 289.080078125Q423.620458984375 298.2109375 421.404150390625 305.349609375Q418.596826171875 314.646484375 418.0796875 318.796875Q417.562548828125 322.947265625 417.562548828125 324.607421875Q417.562548828125 329.919921875 424.72861328125 333.6552734375Q431.894677734375 337.390625 448.590869140625 339.05078125V352.0H362.598095703125V339.05078125Q367.473974609375 338.71875 373.60576171875 337.3076171875Q379.737548828125 335.896484375 383.283642578125 333.40625Q389.341552734375 329.421875 393.5525390625 323.611328125Q397.763525390625 317.80078125 400.570849609375 309.83203125Q417.710302734375 263.181640625 434.9236328125 216.365234375Q452.136962890625 169.548828125 472.970263671875 113.103515625H502.52104492187505Q531.480810546875 193.123046875 547.8814941406249 239.607421875Q564.282177734375 286.091796875 575.806982421875 316.638671875Q577.727783203125 321.619140625 580.682861328125 325.6865234375Q583.637939453125 329.75390625 589.104833984375 333.40625Q593.241943359375 336.0625 598.708837890625 337.390625Q604.175732421875 338.71875 608.608349609375 339.05078125ZM498.531689453125 256.70703125 468.094384765625 171.375 438.100341796875 256.70703125Z"/><path d="M844.3680175781251 129.373046875Q840.2309082031251 129.87109375 832.5477050781251 131.19921875Q824.864501953125 132.52734375 818.658837890625 137.673828125Q813.191943359375 142.15625 810.9017578125 153.0302734375Q808.611572265625 163.904296875 808.611572265625 184.98828125V353.328125H782.3113769531251L651.696923828125 171.208984375V281.775390625Q651.696923828125 302.361328125 654.1348632812501 313.0693359375Q656.572802734375 323.77734375 662.039697265625 328.7578125Q666.029052734375 332.41015625 674.746533203125 335.232421875Q683.464013671875 338.0546875 688.635400390625 339.05078125V352.0H598.505517578125V339.05078125Q604.267919921875 338.552734375 611.7294921875 336.6435546875Q619.191064453125 334.734375 624.214697265625 330.75Q629.977099609375 325.935546875 632.11953125 316.2236328125Q634.261962890625 306.51171875 634.261962890625 283.6015625V172.0390625Q634.261962890625 163.73828125 631.9717773437501 156.3505859375Q629.6815917968751 148.962890625 624.805712890625 143.650390625Q619.634326171875 138.005859375 612.9115234375 134.7685546875Q606.188720703125 131.53125 597.618994140625 129.705078125V116.423828125H676.519580078125L791.1766113281251 275.798828125V186.6484375Q791.1766113281251 165.3984375 788.664794921875 155.0224609375Q786.152978515625 144.646484375 780.686083984375 139.666015625Q776.4012207031251 135.84765625 767.979248046875 133.1083984375Q759.557275390625 130.369140625 754.385888671875 129.373046875V116.423828125H844.3680175781251Z"/><path d="M1096.8238769531251 352.0H1013.786181640625Q995.0214355468751 319.626953125 979.9505371093751 297.87890625Q964.8796386718751 276.130859375 941.386767578125 243.259765625H933.7035644531251V317.302734375Q933.7035644531251 323.279296875 935.6243652343751 327.4296875Q937.5451660156251 331.580078125 943.3075683593751 334.40234375Q945.9671386718751 335.73046875 951.2124023437501 337.05859375Q956.4576660156251 338.38671875 961.6290527343751 339.05078125V352.0H850.2226074218751V339.05078125Q854.211962890625 338.71875 861.5257812500001 338.0546875Q868.8395996093751 337.390625 871.7946777343751 336.0625Q877.113818359375 333.73828125 879.182373046875 329.587890625Q881.2509277343751 325.4375 881.2509277343751 319.12890625V152.1171875Q881.2509277343751 146.306640625 879.4778808593751 142.322265625Q877.7048339843751 138.337890625 871.7946777343751 135.18359375Q867.2143066406251 132.859375 860.713134765625 131.365234375Q854.211962890625 129.87109375 850.2226074218751 129.373046875V116.423828125H965.3229003906251V129.373046875Q960.7425292968751 129.87109375 954.315234375 130.7841796875Q947.8879394531251 131.697265625 943.3075683593751 133.357421875Q937.5451660156251 135.515625 935.6243652343751 140.1640625Q933.7035644531251 144.8125 933.7035644531251 150.45703125V229.8125H939.909228515625Q951.4340332031251 218.025390625 966.8004394531251 201.423828125Q982.1668457031251 184.822265625 990.5888183593751 174.197265625Q1002.4091308593751 159.421875 1007.9499023437501 150.7890625Q1013.4906738281251 142.15625 1013.4906738281251 135.84765625Q1013.4906738281251 133.025390625 1008.1715332031251 131.53125Q1002.8523925781251 130.037109375 991.9186035156251 129.373046875V116.423828125H1083.082763671875V129.373046875Q1066.5343261718751 131.365234375 1055.305029296875 136.0966796875Q1044.075732421875 140.828125 1032.994189453125 151.951171875Q1017.1845214843751 167.888671875 1006.9156250000001 179.5927734375Q996.6467285156251 191.296875 980.541552734375 209.55859375Q994.7259277343751 228.982421875 1014.6727050781251 257.1220703125Q1034.619482421875 285.26171875 1054.418505859375 311.990234375Q1059.442138671875 318.796875 1065.9433105468752 325.0224609375Q1072.4444824218751 331.248046875 1080.275439453125 335.06640625Q1083.969287109375 336.892578125 1088.697412109375 337.888671875Q1093.425537109375 338.884765625 1096.8238769531251 339.05078125Z"/><path d="M1346.620166015625 352.0H1233.292919921875V339.05078125Q1236.986767578125 338.71875 1244.078955078125 338.0546875Q1251.171142578125 337.390625 1253.830712890625 336.0625Q1259.297607421875 333.572265625 1261.366162109375 329.5048828125Q1263.434716796875 325.4375 1263.434716796875 319.12890625V237.947265625H1173.895849609375V317.302734375Q1173.895849609375 322.947265625 1176.0382812500002 327.4296875Q1178.180712890625 331.912109375 1183.352099609375 334.40234375Q1186.159423828125 335.73046875 1192.956103515625 337.224609375Q1199.752783203125 338.71875 1204.037646484375 339.05078125V352.0H1090.710400390625V339.05078125Q1094.404248046875 338.884765625 1101.5703125 337.9716796875Q1108.736376953125 337.05859375 1111.986962890625 335.73046875Q1117.306103515625 333.572265625 1119.374658203125 329.1728515625Q1121.443212890625 324.7734375 1121.443212890625 318.796875V152.1171875Q1121.443212890625 146.306640625 1119.5962890625 142.322265625Q1117.749365234375 138.337890625 1111.986962890625 135.349609375Q1107.702099609375 133.19140625 1100.757666015625 131.4482421875Q1093.813232421875 129.705078125 1090.710400390625 129.373046875V116.423828125H1204.037646484375V129.373046875Q1199.457275390625 129.705078125 1193.103857421875 131.033203125Q1186.750439453125 132.361328125 1183.352099609375 133.5234375Q1177.589697265625 135.681640625 1175.7427734375 140.4130859375Q1173.895849609375 145.14453125 1173.895849609375 150.45703125V220.84765625H1263.434716796875V152.1171875Q1263.434716796875 146.306640625 1261.513916015625 142.322265625Q1259.593115234375 138.337890625 1253.830712890625 135.349609375Q1249.989111328125 133.357421875 1243.56181640625 131.6142578125Q1237.134521484375 129.87109375 1233.292919921875 129.373046875V116.423828125H1346.620166015625V129.373046875Q1341.892041015625 129.705078125 1335.981884765625 130.7841796875Q1330.071728515625 131.86328125 1325.343603515625 133.5234375Q1319.728955078125 135.681640625 1317.8081542968748 140.330078125Q1315.887353515625 144.978515625 1315.887353515625 150.45703125V317.302734375Q1315.887353515625 323.279296875 1317.8081542968748 327.4296875Q1319.728955078125 331.580078125 1325.343603515625 334.40234375Q1328.889697265625 336.0625 1335.6125000000002 337.390625Q1342.335302734375 338.71875 1346.620166015625 339.05078125Z"/><path d="M1581.345556640625 129.373046875Q1576.026416015625 130.037109375 1571.593798828125 131.53125Q1567.161181640625 133.025390625 1563.171826171875 135.681640625Q1556.818408203125 139.666015625 1551.86865234375 145.8916015625Q1546.918896484375 152.1171875 1542.190771484375 159.75390625Q1532.586767578125 175.525390625 1522.02236328125 194.0361328125Q1511.457958984375 212.546875 1499.046630859375 234.79296875Q1490.920166015625 248.904296875 1489.0732421875 256.4580078125Q1487.226318359375 264.01171875 1487.226318359375 282.60546875V315.974609375Q1487.226318359375 321.951171875 1489.22099609375 326.43359375Q1491.215673828125 330.916015625 1496.830322265625 333.73828125Q1499.342138671875 334.900390625 1507.468603515625 336.8095703125Q1515.595068359375 338.71875 1519.436669921875 339.05078125V352.0H1402.563330078125V339.05078125Q1406.700439453125 338.71875 1414.45751953125 337.72265625Q1422.214599609375 336.7265625 1425.317431640625 335.3984375Q1430.784326171875 332.7421875 1432.77900390625 328.3427734375Q1434.773681640625 323.943359375 1434.773681640625 317.634765625V276.130859375Q1434.773681640625 270.65234375 1434.625927734375 266.501953125Q1434.478173828125 262.3515625 1433.591650390625 259.529296875Q1432.557373046875 256.375 1430.045556640625 251.4775390625Q1427.533740234375 246.580078125 1423.544384765625 238.77734375Q1412.167333984375 216.365234375 1401.529052734375 196.27734375Q1390.890771484375 176.189453125 1381.286767578125 158.591796875Q1376.263134765625 149.4609375 1371.165625 143.8994140625Q1366.068115234375 138.337890625 1360.748974609375 134.8515625Q1356.759619140625 132.361328125 1351.07109375 131.033203125Q1345.382568359375 129.705078125 1340.802197265625 129.373046875V116.423828125H1460.926123046875V129.373046875Q1444.377685546875 129.87109375 1438.615283203125 131.9462890625Q1432.852880859375 134.021484375 1432.852880859375 137.673828125Q1432.852880859375 139.5 1434.9953125000002 144.978515625Q1437.137744140625 150.45703125 1442.604638671875 161.912109375Q1447.628271484375 172.703125 1457.30615234375 191.62890625Q1466.984033203125 210.5546875 1480.577392578125 235.955078125Q1508.650634765625 185.984375 1519.141162109375 166.1455078125Q1529.631689453125 146.306640625 1529.631689453125 141.82421875Q1529.631689453125 136.1796875 1523.49990234375 133.19140625Q1517.368115234375 130.203125 1503.627001953125 129.373046875V116.423828125H1581.345556640625Z"/><path d="M1802.034326171875 352.0H1687.820556640625V339.05078125Q1695.799267578125 338.38671875 1706.585302734375 335.8134765625Q1717.371337890625 333.240234375 1717.371337890625 329.421875Q1717.371337890625 328.09375 1717.14970703125 326.43359375Q1716.928076171875 324.7734375 1715.893798828125 321.951171875L1698.015576171875 273.142578125H1625.616162109375Q1623.1043457031249 279.94921875 1620.075390625 289.080078125Q1617.046435546875 298.2109375 1614.830126953125 305.349609375Q1612.0228027343749 314.646484375 1611.5056640624998 318.796875Q1610.988525390625 322.947265625 1610.988525390625 324.607421875Q1610.988525390625 329.919921875 1618.1545898437498 333.6552734375Q1625.3206542968749 337.390625 1642.016845703125 339.05078125V352.0H1556.024072265625V339.05078125Q1560.899951171875 338.71875 1567.03173828125 337.3076171875Q1573.163525390625 335.896484375 1576.709619140625 333.40625Q1582.767529296875 329.421875 1586.978515625 323.611328125Q1591.189501953125 317.80078125 1593.996826171875 309.83203125Q1611.136279296875 263.181640625 1628.349609375 216.365234375Q1645.562939453125 169.548828125 1666.396240234375 113.103515625H1695.947021484375Q1724.906787109375 193.123046875 1741.307470703125 239.607421875Q1757.708154296875 286.091796875 1769.232958984375 316.638671875Q1771.153759765625 321.619140625 1774.108837890625 325.6865234375Q1777.063916015625 329.75390625 1782.530810546875 333.40625Q1786.667919921875 336.0625 1792.1348144531248 337.390625Q1797.601708984375 338.71875 1802.034326171875 339.05078125ZM1691.957666015625 256.70703125 1661.5203613281249 171.375 1631.526318359375 256.70703125Z"/></clipPath>
  <pattern id="sk-halftone" width="9" height="9" patternUnits="userSpaceOnUse"><circle cx="3" cy="3" r="1.35" fill="#E61E25"/></pattern>
  <pattern id="sk-speckle" width="89" height="73" patternUnits="userSpaceOnUse" fill="#8B0F14"><circle cx="0" cy="0" r="0.5"/><circle cx="31" cy="23" r="0.8"/><circle cx="62" cy="46" r="1.1"/><circle cx="4" cy="69" r="0.5"/><circle cx="35" cy="19" r="0.8"/><circle cx="66" cy="42" r="1.1"/><circle cx="8" cy="65" r="0.5"/><circle cx="39" cy="15" r="0.8"/><circle cx="70" cy="38" r="1.1"/><circle cx="12" cy="61" r="0.5"/><circle cx="43" cy="11" r="0.8"/><circle cx="74" cy="34" r="1.1"/><circle cx="16" cy="57" r="0.5"/><circle cx="47" cy="7" r="0.8"/><circle cx="78" cy="30" r="1.1"/><circle cx="20" cy="53" r="0.5"/><circle cx="51" cy="3" r="0.8"/><circle cx="82" cy="26" r="1.1"/><circle cx="24" cy="49" r="0.5"/><circle cx="55" cy="72" r="0.8"/><circle cx="86" cy="22" r="1.1"/><circle cx="28" cy="45" r="0.5"/></pattern>
  <linearGradient id="sk-ink" x2="0.2" y2="1"><stop stop-color="#FFE46C"/><stop offset=".65" stop-color="#FFD129"/><stop offset="1" stop-color="#FFBD25"/></linearGradient>
</defs>
<use href="#sk-letters" transform="translate(14 22)" fill="#0B0B0B" stroke="#0B0B0B" stroke-width="19" stroke-linejoin="round"/>
<use href="#sk-letters" transform="translate(12 17)" fill="#3B1CF4" stroke="#3B1CF4" stroke-width="4" stroke-linejoin="round"/>
<use href="#sk-letters" fill="url(#sk-ink)" stroke="#0B0B0B" stroke-width="5" stroke-linejoin="round"/>
<g clip-path="url(#sk-face)">
  <rect width="1835" height="432" fill="url(#sk-speckle)" opacity=".24"/>
  <path d="M0 90L1835 200V227L0 117Z M0 322L1835 360V400L0 368Z" fill="url(#sk-halftone)" opacity=".48"/>
  <g transform="translate(149 163) scale(0.74)"><g class="sk-ornament sk-ornament--lotus" data-motion="bloom" fill="#8B0F14"><path d="M50 82C30 74 12 65 9 44C28 44 38 53 50 70C34 48 34 27 50 8C66 27 66 48 50 70C62 53 72 44 91 44C88 65 70 74 50 82Z M18 32C34 34 43 45 46 62C28 54 21 46 18 32Z M82 32C66 34 57 45 54 62C72 54 79 46 82 32Z"/></g></g><g transform="translate(154 325) scale(0.48)"><g class="sk-ornament sk-ornament--lotus" data-motion="bloom" fill="#8B0F14"><path d="M50 82C30 74 12 65 9 44C28 44 38 53 50 70C34 48 34 27 50 8C66 27 66 48 50 70C62 53 72 44 91 44C88 65 70 74 50 82Z M18 32C34 34 43 45 46 62C28 54 21 46 18 32Z M82 32C66 34 57 45 54 62C72 54 79 46 82 32Z"/></g></g><g transform="translate(92 132) scale(0.56)"><g class="sk-ornament sk-ornament--paisley" data-motion="sway" fill="#8B0F14"><path d="M36 86C6 76 7 43 32 34C57 26 65 8 61 3C89 22 92 64 70 82C60 91 46 92 36 86Z M42 72C25 63 30 46 44 45C56 44 63 37 65 28C78 51 65 80 42 72Z"/></g></g><g transform="translate(286 252) scale(0.4)"><g class="sk-ornament sk-ornament--diamond" data-motion="turn" fill="#8B0F14"><path d="M50 5C56 30 69 43 93 50C69 56 56 70 50 95C44 70 31 56 7 50C31 43 44 30 50 5Z"/></g></g><g transform="translate(503 237) scale(0.4)"><g class="sk-ornament sk-ornament--flower" data-motion="turn" fill="#8B0F14"><path d="M50 50C27 33 33 9 50 3C67 9 73 33 50 50Z" transform="rotate(0 50 50)"/><path d="M50 50C27 33 33 9 50 3C67 9 73 33 50 50Z" transform="rotate(60 50 50)"/><path d="M50 50C27 33 33 9 50 3C67 9 73 33 50 50Z" transform="rotate(120 50 50)"/><path d="M50 50C27 33 33 9 50 3C67 9 73 33 50 50Z" transform="rotate(180 50 50)"/><path d="M50 50C27 33 33 9 50 3C67 9 73 33 50 50Z" transform="rotate(240 50 50)"/><path d="M50 50C27 33 33 9 50 3C67 9 73 33 50 50Z" transform="rotate(300 50 50)"/><circle cx="50" cy="50" r="7" fill="#FFD129"/></g></g><g transform="translate(645 141) scale(0.4)"><g class="sk-ornament sk-ornament--paisley" data-motion="sway" fill="#8B0F14"><path d="M36 86C6 76 7 43 32 34C57 26 65 8 61 3C89 22 92 64 70 82C60 91 46 92 36 86Z M42 72C25 63 30 46 44 45C56 44 63 37 65 28C78 51 65 80 42 72Z"/></g></g><g transform="translate(758 278) scale(0.38)"><g class="sk-ornament sk-ornament--diamond" data-motion="turn" fill="#8B0F14"><path d="M50 5C56 30 69 43 93 50C69 56 56 70 50 95C44 70 31 56 7 50C31 43 44 30 50 5Z"/></g></g><g transform="translate(890 219) scale(0.44)"><g class="sk-ornament sk-ornament--flower" data-motion="turn" fill="#8B0F14"><path d="M50 50C27 33 33 9 50 3C67 9 73 33 50 50Z" transform="rotate(0 50 50)"/><path d="M50 50C27 33 33 9 50 3C67 9 73 33 50 50Z" transform="rotate(60 50 50)"/><path d="M50 50C27 33 33 9 50 3C67 9 73 33 50 50Z" transform="rotate(120 50 50)"/><path d="M50 50C27 33 33 9 50 3C67 9 73 33 50 50Z" transform="rotate(180 50 50)"/><path d="M50 50C27 33 33 9 50 3C67 9 73 33 50 50Z" transform="rotate(240 50 50)"/><path d="M50 50C27 33 33 9 50 3C67 9 73 33 50 50Z" transform="rotate(300 50 50)"/><circle cx="50" cy="50" r="7" fill="#FFD129"/></g></g><g transform="translate(1007 304) scale(0.34)"><g class="sk-ornament sk-ornament--lotus" data-motion="bloom" fill="#8B0F14"><path d="M50 82C30 74 12 65 9 44C28 44 38 53 50 70C34 48 34 27 50 8C66 27 66 48 50 70C62 53 72 44 91 44C88 65 70 74 50 82Z M18 32C34 34 43 45 46 62C28 54 21 46 18 32Z M82 32C66 34 57 45 54 62C72 54 79 46 82 32Z"/></g></g><g transform="translate(1131 211) scale(0.44)"><g class="sk-ornament sk-ornament--flower" data-motion="turn" fill="#8B0F14"><path d="M50 50C27 33 33 9 50 3C67 9 73 33 50 50Z" transform="rotate(0 50 50)"/><path d="M50 50C27 33 33 9 50 3C67 9 73 33 50 50Z" transform="rotate(60 50 50)"/><path d="M50 50C27 33 33 9 50 3C67 9 73 33 50 50Z" transform="rotate(120 50 50)"/><path d="M50 50C27 33 33 9 50 3C67 9 73 33 50 50Z" transform="rotate(180 50 50)"/><path d="M50 50C27 33 33 9 50 3C67 9 73 33 50 50Z" transform="rotate(240 50 50)"/><path d="M50 50C27 33 33 9 50 3C67 9 73 33 50 50Z" transform="rotate(300 50 50)"/><circle cx="50" cy="50" r="7" fill="#FFD129"/></g></g><g transform="translate(1269 157) scale(0.4)"><g class="sk-ornament sk-ornament--paisley" data-motion="sway" fill="#8B0F14"><path d="M36 86C6 76 7 43 32 34C57 26 65 8 61 3C89 22 92 64 70 82C60 91 46 92 36 86Z M42 72C25 63 30 46 44 45C56 44 63 37 65 28C78 51 65 80 42 72Z"/></g></g><g transform="translate(1444 303) scale(0.36)"><g class="sk-ornament sk-ornament--diamond" data-motion="turn" fill="#8B0F14"><path d="M50 5C56 30 69 43 93 50C69 56 56 70 50 95C44 70 31 56 7 50C31 43 44 30 50 5Z"/></g></g><g transform="translate(1696 237) scale(0.4)"><g class="sk-ornament sk-ornament--flower" data-motion="turn" fill="#8B0F14"><path d="M50 50C27 33 33 9 50 3C67 9 73 33 50 50Z" transform="rotate(0 50 50)"/><path d="M50 50C27 33 33 9 50 3C67 9 73 33 50 50Z" transform="rotate(60 50 50)"/><path d="M50 50C27 33 33 9 50 3C67 9 73 33 50 50Z" transform="rotate(120 50 50)"/><path d="M50 50C27 33 33 9 50 3C67 9 73 33 50 50Z" transform="rotate(180 50 50)"/><path d="M50 50C27 33 33 9 50 3C67 9 73 33 50 50Z" transform="rotate(240 50 50)"/><path d="M50 50C27 33 33 9 50 3C67 9 73 33 50 50Z" transform="rotate(300 50 50)"/><circle cx="50" cy="50" r="7" fill="#FFD129"/></g></g>
</g>
</svg>