<?xml version="1.0" encoding="UTF-8" standalone="no"?>
<!-- Created with Inkscape (http://www.inkscape.org/) -->

<svg
   width="1000"
   height="1000"
   viewBox="0 0 1000 1000"
   version="1.1"
   id="svg1"
   xml:space="preserve"
   xmlns="http://www.w3.org/2000/svg"
   xmlns:svg="http://www.w3.org/2000/svg"><defs
     id="defs1" /><g
     id="use26"
     style="fill:#000000;fill-opacity:1"
     transform="translate(-292,54)"><path
       id="path34-2-5-14"
       clip-path="none"
       style="fill:#000000;fill-opacity:1;stroke:none;stroke-width:4.01479;stroke-dasharray:none;stroke-opacity:1"
       d="m 1737,761 c 23.8689,47.3627 66.251,88.76802 121.0586,115.85352 l 6.1211,3.02539 c 11.2699,5.4234 22.9233,10.24113 34.8769,14.42383 -13.7873,-26.8083 -8.6249,-59.74323 -26.582,-81.41993 -23.2311,-28.0432 -62.9608,-13.65991 -111.8477,-34.04101 l -1.8476,-0.91992 C 1750.3266,773.57818 1742.9559,767.851 1737,761 Z m 72.5898,45.6543 c 9.3687,2.0829 15.2688,7.50615 22.3106,11.93945 6.4546,4.0637 11.2054,7.30258 18.1211,13.33985 -2.3055,-6.84751 7.957,-10.99024 7.957,-10.99024 0,0 -1.3498,5.23048 -0.9433,7.95898 1.9709,13.2249 17.8549,23.05739 16.1503,39.11329 -5.8773,-11.142 -17.1575,-18.31533 -27.5136,-25.20313 -11.2613,-7.4899 -36.8418,-16.99609 -36.8418,-16.99609 0,0 9.9152,-1.35755 16.334,0.15625 4.8789,1.1506 6.2989,2.63203 9.0781,2.86523 -11.383,-11.912 -24.6524,-22.18359 -24.6524,-22.18359 z m 264.9922,40.87695 c -41.862,0.3972 -82.684,30.49865 -126.1015,31.18945 -12.8902,0.205 -36.657,-7.29375 -40.8633,-8.65625 0.9726,1.4055 2.82,8.46484 3.9316,40.52344 -16.6883,-11.1515 -32.9884,-17.35819 -50.7226,-17.80859 -21.5,-0.5461 -45.1064,7.36674 -74.0684,25.18164 12.3489,-4.5679 25.4526,-7.06681 38.7168,-7.38281 l 2.875,-0.0332 c 125.6889,0.3794 62.2735,113.36727 -23.3731,124.70897 0.6466,0.096 1.2931,0.1939 1.9395,0.293 v 0.016 c 35.7128,5.5588 71.2802,15.5001 105.5215,29.4922 0,0 -0.5571,-7.1907 0,-10.7266 1.8164,-11.5281 5.9202,-22.3255 10.7773,-33.4277 l 1.334,-2.9707 c 13.4116,-29.25677 47.836,-46.91213 47.836,-46.91213 0,0 -10.1264,-17.30693 -13.6133,-23.90039 -9.6152,-14.7522 -19.7648,-38.717 -33.9785,-46.8418 1.5052,0.331 3.1846,0.89314 5.0117,1.67774 31.9416,13.7203 98.1233,93.68562 73.9238,152.54878 l -0.8047,1.8321 c -3.2133,7.3166 -8.6091,13.1194 -15.5058,17.4121 25.3809,14.8616 111.83,2.6387 111.83,2.6387 0,0 56.1661,60.0928 100.711,45.5175 34.0123,-11.129 73.3418,-75.4707 73.3418,-75.4707 0,0 -44.932,-6.7641 -61.5469,-20.0488 -52.7839,-42.2039 -37.3891,-144.9961 -99.918,-172.5332 -10.5019,-4.6249 -23.3,-6.44871 -37.2539,-6.31641 z m -166.9648,22.5332 c -0.3941,-0.5694 -0.6444,-0.21093 -0.6445,-0.21093 0,0 0.2248,0.075 0.6445,0.21093 z" /><path
       id="path34-44"
       clip-path="none"
       style="fill:#25bebe;fill-opacity:0.636076;stroke:none;stroke-width:4.01479;stroke-dasharray:none;stroke-opacity:1"
       d="m 1144.1834,1097 c 23.1737,13.0585 45.9798,28.4326 67.498,45.5039 l 4.9141,3.9454 c 8.7615,7.1219 17.1792,14.46 25.2207,21.9589 -6.7048,3.7424 -15.1022,6.9036 -22.4375,10.4297 l -0.023,0.043 -0.029,-0.018 c -10.6667,5.1259 -20.6218,10.4959 -32.6211,15.1641 -34.3922,13.3802 -88.8296,29.5891 -163.3144,48.6309 -57.34697,14.6605 -86.88228,18.9333 -88.59966,12.8183 -2.88466,-10.2714 32.63477,-30.9551 32.63477,-30.9551 0,0 -19.6228,-7.1861 -28.86524,-4.2656 -24.75827,7.8233 -41.43471,28.1366 -54.88281,53.2031 -12.78905,24.8981 -16.61113,46.5239 -11.45898,64.8692 5.32392,18.9568 25.59992,29.5019 60.81836,31.6406 35.87754,1.97 82.81616,-4.46 140.82226,-19.2891 70.5301,-18.0307 136.5659,-44.1505 198.7031,-77.3437 14.69,-7.8473 27.5663,-15.7215 39.6133,-23.6172 0.05,0.068 0.1043,0.1329 0.1543,0.2012 1.078,-0.8001 2.1918,-1.5611 3.3379,-2.2832 0.4332,-0.2898 1.0235,-0.5754 1.4531,-0.8653 -0.032,-0.021 -0.063,-0.043 -0.094,-0.064 0.4444,-0.2703 1.3457,-0.7929 1.3457,-0.7929 l -14.5117,-84.3653 c 0,0 -104.0543,-53.9912 -159.6777,-64.5488 z" /><path
       id="path34-2"
       clip-path="none"
       style="fill:#000000;fill-opacity:1;stroke:none;stroke-width:4.01479;stroke-dasharray:none;stroke-opacity:1"
       d="m -540.46484,1733.5469 c 23.8689,47.3627 66.25099,88.768 121.05859,115.8535 l 6.12109,3.0254 c 11.2699,5.4234 22.92336,10.2411 34.87696,14.4238 -13.7873,-26.8083 -8.62493,-59.7432 -26.58203,-81.4199 -23.2311,-28.0432 -62.96076,-13.6599 -111.84766,-34.041 l -1.84766,-0.9199 c -8.4527,-4.3437 -15.82339,-10.0709 -21.77929,-16.9219 z m 72.58984,45.6543 c 9.3687,2.0829 15.26875,7.5061 22.31055,11.9394 6.4546,4.0637 11.20549,7.3027 18.12109,13.3399 -2.3055,-6.8475 7.95703,-10.9903 7.95703,-10.9903 0,0 -1.34986,5.2305 -0.94336,7.959 1.9709,13.2249 17.85499,23.0574 16.15039,39.1133 -5.8773,-11.142 -17.15757,-18.3153 -27.51367,-25.2031 -11.2613,-7.4899 -36.8418,-16.9961 -36.8418,-16.9961 0,0 9.91519,-1.3576 16.33399,0.1562 4.8789,1.1506 6.29892,2.6321 9.07812,2.8653 -11.383,-11.912 -24.65234,-22.1836 -24.65234,-22.1836 z m 264.99219,40.8769 c -41.862,0.3972 -82.68406,30.4987 -126.10157,31.1895 -12.89019,0.205 -36.65698,-7.2938 -40.86328,-8.6563 0.9726,1.4055 2.82004,8.4649 3.93164,40.5235 -16.6883,-11.1515 -32.98845,-17.3582 -50.72265,-17.8086 -21.5,-0.5461 -45.10636,7.3667 -74.06836,25.1816 12.3489,-4.5679 25.4526,-7.0668 38.7168,-7.3828 l 2.875,-0.033 c 125.6889,0.3794 62.27345,113.3673 -23.37305,124.709 0.6465,0.096 1.29305,0.1939 1.93945,0.293 v 0.016 c 35.7128,5.5588 71.28019,15.5001 105.52149,29.4922 0,0 -0.5571,-7.1907 0,-10.7266 1.8164,-11.5281 5.92024,-22.3255 10.77734,-33.4277 l 1.33398,-2.9707 c 9.4606,-20.6379 28.31699,-41.3487 40.39649,-56.6368 -0.1763,-0.099 -0.35335,-0.1989 -0.53125,-0.3007 0.2254,0.05 0.44676,0.094 0.66406,0.1328 2.6638,-3.3764 4.99275,-6.4866 6.81055,-9.2696 -1.0212,-3.445 -3.11119,-7.6262 -6.11719,-12.2382 -9.6152,-14.7522 -26.76482,-31.217 -40.97852,-39.3418 1.50521,0.331 3.18462,0.8931 5.01172,1.6777 31.9416,13.7203 98.12333,93.6856 73.92383,152.5488 l -0.80469,1.8321 c -3.2133,7.3166 -8.60916,13.1195 -15.50586,17.4121 25.3809,14.8616 111.83008,2.6386 111.83008,2.6386 0,0 56.16604,60.0929 100.71094,45.5176 34.0123,-11.129 73.3418004,-75.4707 73.3418004,-75.4707 0,0 -44.9319804,-6.7641 -61.5468804,-20.0488 -52.7839,-42.2039 -37.38907,-144.9961 -99.91797,-172.5332 -10.5019,-4.6249 -23.3,-6.4487 -37.2539,-6.3164 z m -166.96485,22.5332 c -0.3941,-0.5694 -0.64443,-0.2109 -0.64453,-0.2109 0,0 0.22483,0.075 0.64453,0.2109 z m -127.13672,176.4278 c 2.1097,10.0163 6.88423,21.8953 13.91993,34.6328 11.1969,20.2725 27.42953,41.4748 45.36523,59.2539 47.9055,-6.8273 137.89222,9.3843 141.13672,9.9707 0,0 -0.60187,-10.2876 -6.35547,-19.1153 -8.0579,-12.3625 -21.61065,-26.198 -34.47265,-35.1914 -50.45101,-26.0586 -105.05575,-42.9657 -159.59376,-49.5507 z m 170.58204,40.9492 c 23.1732,13.0582 45.97824,28.431 67.49609,45.5019 l 4.91406,3.9453 c 8.7616,7.122 17.17921,14.46 25.22071,21.959 -16.4687,9.1921 -34.83913,17.7324 -55.11133,25.6192 -34.3922,13.3801 -88.82966,29.5891 -163.31446,48.6308 -57.347,14.6605 -86.88221,18.9334 -88.59961,12.8184 -2.8846,-10.2714 32.63477,-30.9551 32.63477,-30.9551 0,0 -19.62283,-7.1861 -28.86523,-4.2656 -24.7583,7.8233 -41.43469,28.1366 -54.88282,53.2031 -12.78905,24.898 -16.61115,46.524 -11.45898,64.8692 5.32391,18.9568 25.59996,29.5019 60.81836,31.6406 35.8776,1.9699 82.81626,-4.4601 140.82226,-19.2891 70.5301,-18.0307 136.56593,-44.1505 198.70313,-77.3437 14.69,-7.8472 27.56628,-15.7216 39.61328,-23.6172 0.05,0.068 0.1042,0.1329 0.1543,0.2011 1.078,-0.8 2.19179,-1.561 3.33789,-2.2832 0.4332,-0.2897 1.02352,-0.5754 1.45312,-0.8652 -0.032,-0.021 -0.0617,-0.041 -0.0937,-0.062 0.4444,-0.2703 1.34571,-0.793 1.34571,-0.793 l -14.51172,-84.3652 c 0,0 -104.05198,-53.9906 -159.67578,-64.5488 z" /><path
       id="path34-2-5-1"
       clip-path="none"
       style="fill:#000000;fill-opacity:1;stroke:none;stroke-width:4.01479;stroke-dasharray:none;stroke-opacity:1"
       d="m 1227.1883,1687 c 23.8689,47.3627 66.251,88.768 121.0586,115.8535 l 6.1211,3.0254 c 11.2699,5.4234 22.9233,10.2411 34.8769,14.4238 -13.7873,-26.8083 -8.6249,-59.7432 -26.582,-81.4199 -23.2311,-28.0432 -62.9608,-13.6599 -111.8477,-34.041 l -1.8476,-0.9199 c -8.4527,-4.3437 -15.8234,-10.0709 -21.7793,-16.9219 z m 72.5898,45.6543 c 9.3687,2.0829 15.2688,7.5061 22.3106,11.9394 6.4546,4.0637 11.2054,7.3026 18.1211,13.3399 -2.3055,-6.8475 7.957,-10.9903 7.957,-10.9903 0,0 -1.3498,5.2305 -0.9433,7.959 1.9709,13.2249 17.8549,23.0574 16.1503,39.1133 -5.8773,-11.142 -17.1575,-18.3153 -27.5136,-25.2031 -11.2613,-7.4899 -36.8418,-16.9961 -36.8418,-16.9961 0,0 9.9152,-1.3576 16.334,0.1562 4.8789,1.1506 6.2989,2.6321 9.0781,2.8653 -11.383,-11.912 -24.6524,-22.1836 -24.6524,-22.1836 z m 264.9922,40.8769 c -41.862,0.3972 -82.684,30.4987 -126.1015,31.1895 -12.8902,0.205 -36.657,-7.2938 -40.8633,-8.6563 0.9726,1.4055 2.82,8.4649 3.9316,40.5235 -16.6883,-11.1515 -32.9884,-17.3582 -50.7226,-17.8086 -21.5,-0.5461 -45.1064,7.3667 -74.0684,25.1816 12.3489,-4.5679 25.4526,-7.0668 38.7168,-7.3828 l 2.875,-0.033 c 125.6889,0.3794 62.2735,113.3673 -23.373,124.709 0.6465,0.096 1.293,0.1939 1.9394,0.293 v 0.016 c 35.7128,5.5588 71.2802,15.5001 105.5215,29.4922 0,0 -0.5571,-7.1907 0,-10.7266 1.8164,-11.5281 5.9202,-22.3255 10.7773,-33.4277 l 1.334,-2.9707 c 9.4606,-20.6379 28.317,-41.3487 40.3965,-56.6368 -0.1763,-0.099 -0.3533,-0.1989 -0.5312,-0.3007 0.2254,0.05 0.4467,0.094 0.664,0.1328 2.6638,-3.3764 4.9928,-6.4866 6.8106,-9.2696 -1.0212,-3.445 -3.1113,-7.6262 -6.1172,-12.2382 -9.6152,-14.7522 -26.7648,-31.217 -40.9785,-39.3418 1.5052,0.331 3.1846,0.8931 5.0117,1.6777 31.9416,13.7203 98.1233,93.6856 73.9238,152.5488 l -0.8047,1.8321 c -3.2133,7.3166 -8.6091,13.1194 -15.5058,17.4121 25.3809,14.8616 111.83,2.6386 111.83,2.6386 0,0 56.1661,60.0929 100.711,45.5176 34.0123,-11.129 73.3418,-75.4707 73.3418,-75.4707 0,0 -44.932,-6.7641 -61.5469,-20.0488 -52.7839,-42.2039 -37.3891,-144.9961 -99.918,-172.5332 -10.5019,-4.6249 -23.3,-6.4487 -37.2539,-6.3164 z m -166.9648,22.5332 c -0.3941,-0.5694 -0.6444,-0.2109 -0.6445,-0.2109 0,0 0.2248,0.075 0.6445,0.2109 z m -127.1367,176.4278 c 2.1097,10.0163 6.8842,21.8953 13.9199,34.6328 11.1969,20.2725 27.4295,41.4748 45.3652,59.2539 71.1328,-13.2328 135.094,0.9771 157.1211,72.1601 -7.6777,-0.1113 -16.5309,-1.5715 -24.6465,-2.1855 l -0.041,0.025 -0.016,-0.031 c -11.8006,-0.8942 -23.1062,-1.2209 -35.832,-3.1777 -36.4746,-5.6085 -91.7234,-18.7893 -165.75,-39.541 -56.9942,-15.9772 -84.7089,-27.0448 -83.1387,-33.1993 2.6375,-10.3376 43.7403,-10.4902 43.7403,-10.4902 0,0 -13.4008,-16.035 -22.8653,-18.127 -25.3529,-5.6039 -49.9531,3.6506 -74.1328,18.6348 -23.5247,15.1679 -37.6466,31.9837 -42.3574,50.4473 -4.8678,19.079 7.4189,38.3491 36.8496,57.8105 30.0859,19.6449 73.9503,37.5464 131.5996,53.7071 70.0962,19.65 140.3449,30.0486 210.7539,32.371 16.6456,0.5491 31.7344,0.1679 46.1153,-0.6464 0.01,0.084 0.024,0.1658 0.033,0.25 1.3336,-0.1539 2.6776,-0.2563 4.0312,-0.3086 0.5201,-0.034 1.1744,0.015 1.6914,-0.021 -0.017,-0.034 -0.033,-0.07 -0.049,-0.1035 0.52,-0.012 1.5625,-0.014 1.5625,-0.014 l 29.6152,-80.3184 c 0,0 -63.1192,-98.7854 -106.0117,-135.7402 0.1033,0.1747 0.4384,0.3671 0.3106,0.5254 -37.0506,45.8884 -83.3929,-45.7143 -167.8692,-55.9141 z" /><path
       id="path34-2-5-7"
       clip-path="none"
       style="fill:#000000;fill-opacity:1;stroke:none;stroke-width:4.01479;stroke-dasharray:none;stroke-opacity:1"
       d="m -1720.2912,1063 c 23.8689,47.3627 66.251,88.768 121.0586,115.8535 l 6.1211,3.0254 c 11.2699,5.4234 22.9233,10.2411 34.8769,14.4238 -13.7873,-26.8083 -8.6249,-59.7432 -26.582,-81.4199 -23.2311,-28.0432 -62.9608,-13.6599 -111.8477,-34.041 l -1.8476,-0.9199 c -8.4527,-4.3437 -15.8234,-10.0709 -21.7793,-16.9219 z m 72.5898,45.6543 c 9.3687,2.0829 15.2688,7.5061 22.3106,11.9395 6.4546,4.0637 11.2054,7.3025 18.1211,13.3398 -2.3055,-6.8475 7.957,-10.9902 7.957,-10.9902 0,0 -1.3499,5.2304 -0.9434,7.9589 1.9709,13.2249 17.855,23.0574 16.1504,39.1133 -5.8773,-11.142 -17.1575,-18.3153 -27.5136,-25.2031 -11.2613,-7.4899 -36.8418,-16.9961 -36.8418,-16.9961 0,0 9.9151,-1.3575 16.3339,0.1563 4.8789,1.1506 6.299,2.632 9.0782,2.8652 -11.383,-11.912 -24.6524,-22.1836 -24.6524,-22.1836 z m 264.9922,40.877 c -41.862,0.3971 -82.684,30.4986 -126.1015,31.1894 -12.8902,0.205 -36.657,-7.2937 -40.8633,-8.6563 0.9726,1.4056 2.82,8.4649 3.9316,40.5235 -16.6883,-11.1515 -32.9884,-17.3582 -50.7226,-17.8086 -21.5,-0.5461 -45.1064,7.3667 -74.0684,25.1816 12.3489,-4.5679 25.4526,-7.0668 38.7168,-7.3828 l 2.875,-0.033 c 125.6889,0.3794 62.2734,113.3673 -23.3731,124.709 0.6465,0.096 1.2931,0.1939 1.9395,0.293 v 0.016 c 11.8794,1.8491 25.0716,0.9822 35.5469,6.9902 50.8995,29.1931 74.504,74.2066 116.5332,131.9356 0,0 -88.8297,29.589 -163.3145,48.6308 -57.3469,14.6605 -86.8822,18.9314 -88.5996,12.8164 -2.8846,-10.2714 32.6348,-30.955 32.6348,-30.955 0,0 -19.6228,-7.1862 -28.8653,-4.2657 -24.7582,7.8233 -41.4347,28.1367 -54.8828,53.2032 -12.789,24.8981 -16.6111,46.5258 -11.4589,64.871 5.3239,18.9568 25.5999,29.5 60.8183,31.6387 35.8776,1.97 82.8162,-4.4599 140.8223,-19.289 70.5301,-18.0307 136.5659,-44.1486 198.7031,-77.3418 14.69,-7.8473 27.5663,-15.7235 39.6133,-23.6192 0.05,0.068 0.1043,0.1348 0.1543,0.2032 1.078,-0.8002 2.1918,-1.5612 3.3379,-2.2832 0.4332,-0.2898 1.0235,-0.5773 1.4531,-0.8672 -0.032,-0.021 -0.063,-0.041 -0.094,-0.062 0.4444,-0.2703 1.3457,-0.793 1.3457,-0.793 l -14.5117,-84.3652 c -22.6268,-22.2165 -166.7688,-62.9625 -163.7149,-87.6817 1.8164,-11.5281 5.9203,-22.3255 10.7774,-33.4277 l 1.334,-2.9707 c 13.4115,-29.2568 59.3359,-43.9121 59.3359,-43.9121 -15.1274,-22.2576 -36.8685,-58.2632 -59.0918,-73.7422 23.4688,5.1608 106.4655,87.2623 78.9356,154.2265 l -0.8047,1.8321 c -3.2133,7.3166 -8.6092,13.1194 -15.5059,17.4121 25.3809,14.8616 111.8301,2.6387 111.8301,2.6387 0,0 56.166,60.0928 100.7109,45.5175 34.0123,-11.129 73.3418,-75.4707 73.3418,-75.4707 0,0 -44.932,-6.7641 -61.5469,-20.0488 -52.7839,-42.2039 -37.389,-144.9961 -99.9179,-172.5332 -10.5019,-4.6249 -23.3,-6.4487 -37.2539,-6.3164 z m -166.9648,22.5331 c -0.3941,-0.5693 -0.6445,-0.2109 -0.6446,-0.2109 0,0 0.2249,0.075 0.6446,0.2109 z" /><path
       d="m 353.71685,625.97457 c -2e-5,0 -5e-5,4e-5 -5e-5,4e-5 z"
       style="fill:#000000;fill-opacity:1;stroke:none;stroke-width:4.01479;stroke-dasharray:none;stroke-opacity:1"
       id="path1" /><path
       id="path2-7-1-0-0"
       style="fill:#eef7f7;fill-opacity:1;fill-rule:evenodd;stroke-width:1.69538;stroke-linecap:square;stroke-linejoin:bevel"
       d="m -60.535534,646.47666 a 91.156967,36.061746 34.593651 0 1 56.4746101,42.31445 91.156967,36.061746 34.593651 0 1 11.88477,59.53711 91.156967,36.061746 34.593651 0 0 10.6406199,0.91211 l 1.3711,-0.0254 a 91.156967,36.061746 34.593651 0 0 -2.63867,-60.98828 91.156967,36.061746 34.593651 0 0 -55.4043,-41.75 z" /><path
       id="path34-44-5-3"
       clip-path="none"
       style="fill:#000000;fill-opacity:1;stroke:none;stroke-width:4.01479;stroke-dasharray:none;stroke-opacity:1"
       d="m 621.80263,-732 c 23.86892,47.36276 66.25099,88.76805 121.05859,115.85352 l 6.12109,3.02539 c 11.26993,5.42339 22.92338,10.2411 34.87696,14.42382 -13.78737,-26.80832 -8.6249,-59.74324 -26.58203,-81.41992 -23.23111,-28.04321 -62.96079,-13.6599 -111.84766,-34.04101 l -1.84766,-0.91992 C 635.12927,-719.42183 627.75851,-725.14898 621.80263,-732 Z m 72.58984,45.6543 c 9.36868,2.08298 15.2688,7.50613 22.31055,11.93945 6.45461,4.06367 11.2055,7.30273 18.12109,13.33984 -2.30543,-6.84749 7.95703,-10.99023 7.95703,-10.99023 0,0 -1.34997,5.2305 -0.94336,7.95898 1.97085,13.22491 17.85495,23.0574 16.15039,39.11328 -5.87731,-11.14197 -17.15755,-18.31527 -27.51367,-25.20312 -11.26122,-7.48983 -36.84178,-16.99609 -36.8418,-16.99609 0,0 9.91513,-1.35759 16.33399,0.15625 4.87886,1.15063 6.29892,2.632 9.07812,2.86523 -11.38296,-11.912 -24.65234,-22.18359 -24.65234,-22.18359 z m 264.99219,40.87695 c -41.86201,0.39716 -82.68411,30.49867 -126.10156,31.18945 -12.89026,0.20504 -36.65693,-7.29381 -40.86329,-8.65625 0.97266,1.40544 2.82002,8.46484 3.93165,40.52344 -16.68832,-11.15155 -32.98837,-17.35813 -50.72266,-17.80859 -21.49997,-0.54607 -45.10631,7.36678 -74.06836,25.18164 12.34888,-4.5679 25.45256,-7.06682 38.7168,-7.38282 l 2.875,-0.0332 c 125.68891,0.37941 62.27345,113.36732 -23.37305,124.70899 0.64644,0.0961 1.29301,0.19383 1.93945,0.29297 v 0.0137 c 35.71275,5.55878 71.28021,15.50004 105.52149,29.49218 0,0 -0.55713,-7.19069 0,-10.72656 1.81642,-11.52802 5.92024,-22.32557 10.77734,-33.42773 l 1.33399,-2.97071 c 13.21582,-28.8299 44.76808,-57.80339 50.5664,-71.93554 0.7441,0.83519 1.46282,1.6701 2.1543,2.5039 31.76987,38.30822 37.75717,78.52207 26.45898,106.00391 l -0.80468,1.83203 c -3.21331,7.31661 -8.60924,13.1195 -15.50586,17.41211 25.38089,14.86155 111.83007,2.63867 111.83007,2.63867 0,0 56.16603,60.09286 100.71093,45.51758 34.0123,-11.12893 73.3418,-75.4707 73.3418,-75.4707 0,0 -44.932,-6.76413 -61.5469,-20.04883 -52.7839,-42.20397 -37.3891,-144.99617 -99.91794,-172.5332 -10.50193,-4.62496 -23.29996,-6.44876 -37.2539,-6.31641 z m -166.96485,22.5332 c -0.3941,-0.56943 -0.64453,-0.21093 -0.64453,-0.21093 0,0 0.22483,0.075 0.64453,0.21093 z m -203.31835,174.0918 c 13.12119,1.85489 25.79815,5.85818 37.45312,11.82617 l 2.50586,1.32422 c 34.74807,18.88023 56.35165,53.59773 56.84375,91.35547 55.82572,-15.94968 119.57748,-10.18676 155.64844,-2.08008 16.47176,3.70191 23.00898,5.71241 32.99414,10.67188 4.04361,2.00839 9.14554,5.41301 13.78515,8.7539 2.86817,-11.60997 -12.3441,-34.13813 -23.40234,-48.14062 -10.64158,-13.4749 -24.23385,-25.49707 -39.8457,-32.64453 -72.5965,-33.23634 -156.28058,-45.58409 -235.98242,-41.06641 z m 276.11132,53.98828 c 7.73158,6.14428 14.81771,12.61675 20.97461,19.1582 25.05111,26.6802 31.02563,50.47461 14.63086,58.26954 0.002,10e-4 0.15039,0.11523 0.15039,0.11523 0,0 -1.27105,0.49474 -3.23437,1.25781 -5.19454,2.01893 -15.22961,5.91863 -19.34961,7.52149 -34.39224,13.3802 -107.61787,37.76232 -162.96094,51.10547 -26.53983,6.39873 -47.24404,10.54587 -80.73047,13.79882 -2.95902,0.28745 -6.30437,-0.84277 -8.22265,-3.45507 -9.82725,-13.38271 15.13476,-47.45508 15.13476,-47.45508 l -35.16992,18.08203 c -14.58,33.16278 -56.79398,74.8462 -42.53711,112.22461 8.14399,21.35176 25.59992,29.50195 60.81836,31.64062 35.87754,1.96998 82.81621,-4.46003 140.82227,-19.28906 110.27211,-28.19063 235.70764,-84.27255 244.51374,-104.76566 11.2656,-26.21675 3.059,-61.88187 -14.51174,-84.36524 -22.51527,-28.8104 -65.58363,-33.02379 -100.40821,-44.16992 -9.93792,-3.18078 -19.91246,-6.42199 -29.91992,-9.67383 z" /></g><g
     id="layer1-4-5"
     style="fill:#ffffff;fill-opacity:1"
     transform="matrix(1.0033533,0,0,1,-3.3622679,0.1356651)"><g
       id="use26-5-1"
       style="fill:#ffffff;fill-opacity:1"><path
         id="path34-5-3"
         clip-path="none"
         style="fill:#ffffff;fill-opacity:1;stroke:none;stroke-width:4.01479;stroke-dasharray:none;stroke-opacity:1"
         d="m 263.23047,199.96484 c 23.86892,47.36276 66.25099,88.76805 121.05859,115.85352 l 6.1211,3.02539 c 11.26993,5.42339 22.92337,10.24111 34.87695,14.42383 -13.78737,-26.80832 -8.6249,-59.74324 -26.58203,-81.41992 -23.23111,-28.04321 -62.96079,-13.65991 -111.84766,-34.04102 l -1.84765,-0.91992 c -8.45265,-4.34369 -15.82342,-10.07086 -21.7793,-16.92188 z m 72.58984,45.6543 c 9.36868,2.08298 15.2688,7.50613 22.31055,11.93945 6.45461,4.06367 11.2055,7.30274 18.12109,13.33985 -2.30543,-6.84749 7.95703,-10.99024 7.95703,-10.99024 0,0 -1.34997,5.23051 -0.94336,7.95899 1.97085,13.22491 17.85496,23.05739 16.1504,39.11328 -5.87731,-11.14198 -17.15756,-18.31528 -27.51368,-25.20313 -11.26122,-7.48983 -36.84179,-16.99609 -36.84179,-16.99609 0,0 9.91512,-1.35759 16.33398,0.15625 4.87886,1.15063 6.29893,2.632 9.07813,2.86523 -11.38296,-11.912 -24.65235,-22.18359 -24.65235,-22.18359 z m 264.99219,40.87695 c -41.86201,0.39716 -82.68411,30.49868 -126.10156,31.18946 -12.89026,0.20504 -36.65692,-7.29381 -40.86328,-8.65625 0.97266,1.40544 2.82002,8.46483 3.93164,40.52343 -16.68831,-11.15155 -32.98837,-17.35813 -50.72266,-17.80859 -21.49997,-0.54607 -45.10631,7.36678 -74.06836,25.18164 12.34888,-4.5679 25.45256,-7.06683 38.7168,-7.38281 l 2.875,-0.0332 c 125.68891,0.37941 62.27345,113.36731 -23.37305,124.70898 0.64644,0.0961 1.29301,0.19385 1.93945,0.29297 v 0.0137 c 35.71275,5.55878 71.28021,15.50005 105.52149,29.49219 0,0 -0.55713,-7.19069 0,-10.72656 1.81642,-11.52802 5.92024,-22.32558 10.77734,-33.42774 l 1.33399,-2.9707 c 13.21582,-28.8299 44.76808,-57.8034 50.5664,-71.93555 0.7441,0.83519 1.46282,1.67011 2.1543,2.50391 31.76987,38.30822 37.75717,78.52206 26.45898,106.0039 l -0.80468,1.83204 c -3.2133,7.31661 -8.60924,13.11949 -15.50586,17.4121 25.38089,14.86155 111.83008,2.63868 111.83008,2.63868 0,0 56.16605,60.09285 100.71093,45.51757 34.01234,-11.12893 73.3418,-75.4707 73.3418,-75.4707 0,0 -44.93195,-6.76413 -61.54687,-20.04883 -52.78391,-42.20397 -37.38913,-144.99617 -99.91797,-172.5332 -10.50193,-4.62496 -23.29997,-6.44876 -37.25391,-6.31641 z M 433.84766,309.0293 c -0.3941,-0.56943 -0.64454,-0.21094 -0.64454,-0.21094 0,0 0.22484,0.075 0.64454,0.21094 z M 277.82422,482.93945 c -15.96283,-0.85127 -31.7648,-0.79149 -47.29492,0.18164 13.12119,1.85489 25.79815,5.85819 37.45312,11.82618 l 2.50586,1.32421 c 34.74807,18.88023 56.35165,53.59773 56.84375,91.35547 55.82572,-15.94968 105.01073,-12.88125 155.64844,-2.08007 19.22458,4.10065 53.11328,24.72464 53.11328,24.7246 l 28.96289,-14.08398 c 0,0 -59.18253,-38.7231 -89.84766,-56.46289 -2.70159,-1.56287 -8.2832,-4.39648 -8.2832,-4.39649 -59.5341,-30.85955 -124.88495,-48.96409 -189.10156,-52.38867 z m 199.4668,43.46485 c 23.17368,13.05842 45.97977,28.43257 67.49804,45.5039 l 4.91406,3.94532 c 8.76153,7.12196 17.17918,14.46001 25.22071,21.95898 -16.46875,9.19204 -34.83913,17.73242 -55.11133,25.61914 -34.39224,13.3802 -88.82963,29.58911 -163.31445,48.63086 -57.34692,14.66051 -86.88223,18.93338 -88.59961,12.81836 -2.88466,-10.2714 32.63476,-30.95508 32.63476,-30.95508 0,0 -19.62279,-7.18611 -28.86523,-4.26562 -24.75827,7.8233 -41.43471,28.13658 -54.88281,53.20312 -12.78905,24.89803 -16.61114,46.5239 -11.45899,64.86914 5.32392,18.95681 25.59992,29.50196 60.81836,31.64063 35.87754,1.96998 82.81622,-4.46004 140.82227,-19.28907 70.53011,-18.03074 136.56587,-44.15056 198.70312,-77.34375 14.68995,-7.84729 27.5663,-15.7215 39.61328,-23.61718 0.0501,0.0682 0.10421,0.13289 0.1543,0.20117 1.07802,-0.8001 2.19182,-1.56105 3.33789,-2.2832 0.43321,-0.28974 1.0235,-0.5754 1.45313,-0.86524 -0.0316,-0.021 -0.0625,-0.0434 -0.0937,-0.0645 0.44438,-0.27029 1.3457,-0.79297 1.3457,-0.79297 L 636.9688,590.95307 c 0,0 -104.05427,-53.99126 -159.67773,-64.54882 z" /></g></g></svg>
